MemphisModern_2025-06-10.ufo
<glyph name="quotedbl" format="2">
  <advance width="358"/>
  <unicode hex="0022"/>
  <outline>
    <contour>
      <point x="245" y="551" type="line"/>
      <point x="268" y="551" type="line"/>
      <point x="296" y="720" type="line" smooth="yes"/>
      <point x="302" y="758"/>
      <point x="285" y="781"/>
      <point x="257" y="781" type="curve" smooth="yes"/>
      <point x="229" y="781"/>
      <point x="212" y="756"/>
      <point x="218" y="720" type="curve" smooth="yes"/>
    </contour>
    <contour>
      <point x="95" y="551" type="line"/>
      <point x="118" y="551" type="line"/>
      <point x="146" y="720" type="line" smooth="yes"/>
      <point x="152" y="758"/>
      <point x="135" y="781"/>
      <point x="107" y="781" type="curve" smooth="yes"/>
      <point x="79" y="781"/>
      <point x="62" y="756"/>
      <point x="68" y="720" type="curve" smooth="yes"/>
    </contour>
  </outline>
</glyph>
<glyph name="dollar" format="2">
  <advance width="500"/>
  <unicode hex="0024"/>
  <outline>
    <contour>
      <point x="228" y="403" type="line"/>
      <point x="161" y="414"/>
      <point x="89" y="455"/>
      <point x="89" y="534" type="curve" smooth="yes"/>
      <point x="89" y="620"/>
      <point x="147" y="666"/>
      <point x="228" y="665" type="curve"/>
    </contour>
    <contour>
      <point x="279" y="345" type="line"/>
      <point x="359" y="324"/>
      <point x="442" y="285"/>
      <point x="442" y="189" type="curve" smooth="yes"/>
      <point x="442" y="95"/>
      <point x="367" y="41"/>
      <point x="279" y="44" type="curve"/>
    </contour>
    <contour>
      <point x="228" y="48" type="line"/>
      <point x="136" y="58"/>
      <point x="87" y="167"/>
      <point x="71" y="251" type="curve"/>
      <point x="26" y="251" type="line"/>
      <point x="26" y="0" type="line"/>
      <point x="76" y="0" type="line"/>
      <point x="76" y="118" type="line"/>
      <point x="78" y="118" type="line"/>
      <point x="104" y="58"/>
      <point x="161" y="0"/>
      <point x="228" y="0" type="curve"/>
      <point x="228" y="-92" type="line"/>
      <point x="279" y="-92" type="line"/>
      <point x="279" y="-4" type="line"/>
      <point x="388" y="-4"/>
      <point x="492" y="67"/>
      <point x="492" y="182" type="curve" smooth="yes"/>
      <point x="492" y="319"/>
      <point x="401" y="370"/>
      <point x="279" y="393" type="curve"/>
      <point x="279" y="662" type="line"/>
      <point x="352" y="645"/>
      <point x="398" y="584"/>
      <point x="416" y="516" type="curve"/>
      <point x="458" y="516" type="line"/>
      <point x="458" y="709" type="line"/>
      <point x="408" y="709" type="line"/>
      <point x="408" y="624" type="line"/>
      <point x="406" y="624" type="line"/>
      <point x="377" y="667"/>
      <point x="334" y="700"/>
      <point x="279" y="710" type="curve"/>
      <point x="279" y="781" type="line"/>
      <point x="228" y="781" type="line"/>
      <point x="228" y="713" type="line"/>
      <point x="130" y="713"/>
      <point x="39" y="640"/>
      <point x="39" y="536" type="curve" smooth="yes"/>
      <point x="39" y="422"/>
      <point x="132" y="373"/>
      <point x="228" y="355" type="curve"/>
    </contour>
  </outline>
</glyph>
<glyph name="asterisk" format="2">
  <advance width="353"/>
  <unicode hex="002A"/>
  <outline>
    <contour>
      <point x="74" y="514" type="line"/>
      <point x="140" y="598" type="line"/>
      <point x="37" y="634" type="line"/>
      <point x="53" y="675" type="line"/>
      <point x="155" y="642" type="line"/>
      <point x="154" y="749" type="line"/>
      <point x="202" y="749" type="line"/>
      <point x="203" y="640" type="line"/>
      <point x="301" y="675" type="line"/>
      <point x="316" y="631" type="line"/>
      <point x="211" y="596" type="line"/>
      <point x="274" y="504" type="line"/>
      <point x="236" y="478" type="line"/>
      <point x="175" y="570" type="line"/>
      <point x="110" y="485" type="line"/>
    </contour>
  </outline>
</glyph>
<glyph name="comma" format="2">
  <advance width="161"/>
  <unicode hex="002C"/>
  <outline>
    <contour>
      <point x="-1" y="-108" type="line"/>
      <point x="65" y="104" type="line"/>
      <point x="121" y="104" type="line"/>
      <point x="55" y="-108" type="line"/>
    </contour>
  </outline>
</glyph>
<glyph name="hyphen" format="2">
  <advance width="312"/>
  <unicode hex="002D"/>
  <outline>
    <contour>
      <point x="32" y="257" type="line"/>
      <point x="280" y="257" type="line"/>
      <point x="280" y="207" type="line"/>
      <point x="32" y="207" type="line"/>
    </contour>
  </outline>
</glyph>
<glyph name="two" format="2">
  <advance width="533"/>
  <unicode hex="0032"/>
  <outline>
    <contour>
      <point x="484" y="0" type="line"/>
      <point x="49" y="0" type="line"/>
      <point x="49" y="54" type="line"/>
      <point x="305" y="362" type="line" smooth="yes"/>
      <point x="313" y="371"/>
      <point x="323" y="382"/>
      <point x="332" y="394" type="curve" smooth="yes"/>
      <point x="371" y="445"/>
      <point x="404" y="485"/>
      <point x="408" y="552" type="curve"/>
      <point x="408" y="556"/>
      <point x="408" y="559"/>
      <point x="408" y="563" type="curve" smooth="yes"/>
      <point x="408" y="655"/>
      <point x="350" y="702"/>
      <point x="262" y="702" type="curve" smooth="yes"/>
      <point x="172" y="702"/>
      <point x="103" y="635"/>
      <point x="103" y="549" type="curve" smooth="yes"/>
      <point x="101" y="501" type="line"/>
      <point x="50" y="501" type="line"/>
      <point x="50" y="541" type="line" smooth="yes"/>
      <point x="50" y="664"/>
      <point x="135" y="750"/>
      <point x="261" y="750" type="curve" smooth="yes"/>
      <point x="314" y="750"/>
      <point x="361" y="734"/>
      <point x="402" y="702" type="curve" smooth="yes"/>
      <point x="443" y="669"/>
      <point x="463" y="624"/>
      <point x="463" y="567" type="curve" smooth="yes"/>
      <point x="463" y="483"/>
      <point x="410" y="403"/>
      <point x="354" y="333" type="curve" smooth="yes"/>
      <point x="331" y="306"/>
      <point x="310" y="282"/>
      <point x="290" y="259" type="curve" smooth="yes"/>
      <point x="120" y="54" type="line"/>
      <point x="430" y="54" type="line"/>
      <point x="430" y="181" type="line"/>
      <point x="484" y="181" type="line"/>
    </contour>
  </outline>
</glyph>
<glyph name="six" format="2">
  <advance width="544"/>
  <unicode hex="0036"/>
  <outline>
    <contour>
      <point x="291" y="414" type="curve" smooth="yes"/>
      <point x="341" y="414"/>
      <point x="441" y="371"/>
      <point x="441" y="235" type="curve" smooth="yes"/>
      <point x="441" y="144"/>
      <point x="388" y="45"/>
      <point x="286" y="45" type="curve" smooth="yes"/>
      <point x="182" y="45"/>
      <point x="113" y="126"/>
      <point x="113" y="227" type="curve" smooth="yes"/>
      <point x="113" y="334"/>
      <point x="180" y="414"/>
    </contour>
    <contour>
      <point x="466" y="600" type="line"/>
      <point x="458" y="695"/>
      <point x="378" y="756"/>
      <point x="279" y="756" type="curve" smooth="yes"/>
      <point x="133" y="756"/>
      <point x="56" y="619"/>
      <point x="56" y="463" type="curve" smooth="yes"/>
      <point x="56" y="241" type="line" smooth="yes"/>
      <point x="56" y="127"/>
      <point x="117" y="-5"/>
      <point x="280" y="-5" type="curve" smooth="yes"/>
      <point x="422" y="-5"/>
      <point x="496" y="116"/>
      <point x="496" y="233" type="curve" smooth="yes"/>
      <point x="496" y="353"/>
      <point x="419" y="465"/>
      <point x="288" y="465" type="curve" smooth="yes"/>
      <point x="223" y="465"/>
      <point x="142" y="432"/>
      <point x="111" y="375" type="curve"/>
      <point x="110" y="375" type="line"/>
      <point x="110" y="432" type="line" smooth="yes"/>
      <point x="110" y="502"/>
      <point x="113" y="535"/>
      <point x="126" y="585" type="curve" smooth="yes"/>
      <point x="144" y="653"/>
      <point x="199" y="705"/>
      <point x="281" y="705" type="curve" smooth="yes"/>
      <point x="362" y="705"/>
      <point x="412" y="662"/>
      <point x="414" y="589" type="curve"/>
    </contour>
    <contour>
      <point x="467" y="592" type="line"/>
      <point x="467" y="594"/>
      <point x="467" y="597"/>
      <point x="466" y="600" type="curve"/>
      <point x="414" y="589" type="line"/>
      <point x="414" y="587"/>
      <point x="414" y="587"/>
      <point x="414" y="585" type="curve"/>
    </contour>
    <contour>
      <point x="467" y="592" type="line"/>
      <point x="414" y="585" type="line"/>
    </contour>
  </outline>
</glyph>
<glyph name="seven" format="2">
  <advance width="499"/>
  <unicode hex="0037"/>
  <outline>
    <contour>
      <point x="403" y="701" type="curve"/>
      <point x="79" y="701" type="line"/>
      <point x="79" y="573" type="line"/>
      <point x="29" y="573" type="line"/>
      <point x="29" y="751" type="line"/>
      <point x="435" y="751" type="line"/>
      <point x="469" y="702" type="line"/>
      <point x="422" y="625"/>
      <point x="382" y="527"/>
      <point x="349" y="408" type="curve" smooth="yes"/>
      <point x="320" y="297"/>
      <point x="301" y="162"/>
      <point x="294" y="1" type="curve"/>
      <point x="236" y="1" type="line"/>
      <point x="251" y="179"/>
      <point x="272" y="317"/>
      <point x="301" y="416" type="curve" smooth="yes"/>
      <point x="330" y="515"/>
      <point x="364" y="610"/>
    </contour>
  </outline>
</glyph>
<glyph name="semicolon" format="2">
  <advance width="205"/>
  <unicode hex="003B"/>
  <outline>
    <contour>
      <point x="9" y="-108" type="line"/>
      <point x="75" y="104" type="line"/>
      <point x="131" y="104" type="line"/>
      <point x="65" y="-108" type="line"/>
    </contour>
    <contour>
      <point x="49" y="422" type="line" smooth="yes"/>
      <point x="49" y="450"/>
      <point x="74" y="475"/>
      <point x="103" y="475" type="curve" smooth="yes"/>
      <point x="132" y="475"/>
      <point x="157" y="450"/>
      <point x="157" y="421" type="curve" smooth="yes"/>
      <point x="157" y="392"/>
      <point x="132" y="368"/>
      <point x="103" y="368" type="curve" smooth="yes"/>
      <point x="74" y="368"/>
      <point x="49" y="392"/>
      <point x="49" y="421" type="curve" smooth="yes"/>
    </contour>
  </outline>
</glyph>
<glyph name="B" format="2">
  <advance width="670"/>
  <unicode hex="0042"/>
  <outline>
    <contour>
      <point x="52" y="1" type="line"/>
      <point x="358" y="1" type="line" smooth="yes"/>
      <point x="510" y="1"/>
      <point x="609" y="83"/>
      <point x="609" y="204" type="curve" smooth="yes"/>
      <point x="609" y="301"/>
      <point x="539" y="376"/>
      <point x="436" y="377" type="curve"/>
      <point x="533" y="392"/>
      <point x="587" y="472"/>
      <point x="587" y="564" type="curve" smooth="yes"/>
      <point x="587" y="660"/>
      <point x="518" y="750"/>
      <point x="350" y="750" type="curve" smooth="yes"/>
      <point x="52" y="750" type="line"/>
      <point x="52" y="700" type="line"/>
      <point x="156" y="700" type="line"/>
      <point x="156" y="51" type="line"/>
      <point x="52" y="51" type="line"/>
    </contour>
    <contour>
      <point x="216" y="51" type="line"/>
      <point x="216" y="351" type="line"/>
      <point x="341" y="351" type="line" smooth="yes"/>
      <point x="485" y="351"/>
      <point x="550" y="304"/>
      <point x="550" y="204" type="curve" smooth="yes"/>
      <point x="550" y="108"/>
      <point x="485" y="51"/>
      <point x="359" y="51" type="curve" smooth="yes"/>
    </contour>
    <contour>
      <point x="216" y="401" type="line"/>
      <point x="216" y="700" type="line"/>
      <point x="348" y="700" type="line" smooth="yes"/>
      <point x="479" y="700"/>
      <point x="531" y="647"/>
      <point x="531" y="561" type="curve" smooth="yes"/>
      <point x="531" y="474"/>
      <point x="481" y="401"/>
      <point x="342" y="401" type="curve" smooth="yes"/>
    </contour>
  </outline>
</glyph>
<glyph name="C" format="2">
  <advance width="812"/>
  <unicode hex="0043"/>
  <outline>
    <contour>
      <point x="742" y="736" type="line"/>
      <point x="742" y="514" type="line"/>
      <point x="683" y="514" type="line"/>
      <point x="656" y="636"/>
      <point x="555" y="696"/>
      <point x="432" y="696" type="curve" smooth="yes"/>
      <point x="341" y="696"/>
      <point x="267" y="666"/>
      <point x="209" y="606" type="curve" smooth="yes"/>
      <point x="150" y="546"/>
      <point x="121" y="469"/>
      <point x="121" y="375" type="curve" smooth="yes"/>
      <point x="121" y="288"/>
      <point x="147" y="213"/>
      <point x="200" y="149" type="curve" smooth="yes"/>
      <point x="253" y="84"/>
      <point x="325" y="52"/>
      <point x="418" y="52" type="curve" smooth="yes"/>
      <point x="557" y="52"/>
      <point x="645" y="115"/>
      <point x="691" y="245" type="curve"/>
      <point x="745" y="225" type="line"/>
      <point x="694" y="74"/>
      <point x="579" y="-2"/>
      <point x="418" y="-2" type="curve" smooth="yes"/>
      <point x="319" y="-2"/>
      <point x="234" y="34"/>
      <point x="165" y="105" type="curve" smooth="yes"/>
      <point x="95" y="176"/>
      <point x="60" y="266"/>
      <point x="60" y="374" type="curve" smooth="yes"/>
      <point x="60" y="476"/>
      <point x="93" y="564"/>
      <point x="160" y="639" type="curve" smooth="yes"/>
      <point x="227" y="714"/>
      <point x="317" y="751"/>
      <point x="432" y="751" type="curve" smooth="yes"/>
      <point x="447" y="751"/>
      <point x="460" y="750"/>
      <point x="475" y="749" type="curve" smooth="yes"/>
      <point x="557" y="740"/>
      <point x="637" y="705"/>
      <point x="685" y="637" type="curve"/>
      <point x="687" y="638" type="line"/>
      <point x="687" y="736" type="line"/>
    </contour>
  </outline>
</glyph>
<glyph name="D" format="2">
  <advance width="790"/>
  <unicode hex="0044"/>
  <outline>
    <contour>
      <point x="52" y="0" type="line"/>
      <point x="52" y="50" type="line"/>
      <point x="140" y="50" type="line"/>
      <point x="140" y="700" type="line"/>
      <point x="52" y="700" type="line"/>
      <point x="52" y="750" type="line"/>
      <point x="284" y="750" type="line"/>
      <point x="287" y="749"/>
      <point x="291" y="749"/>
      <point x="295" y="749" type="curve" smooth="yes"/>
      <point x="348" y="749"/>
      <point x="398" y="746"/>
      <point x="446" y="740" type="curve" smooth="yes"/>
      <point x="494" y="733"/>
      <point x="541" y="711"/>
      <point x="588" y="674" type="curve" smooth="yes"/>
      <point x="599" y="665"/>
      <point x="611" y="654"/>
      <point x="622" y="643" type="curve" smooth="yes"/>
      <point x="692" y="573"/>
      <point x="730" y="479"/>
      <point x="730" y="383" type="curve" smooth="yes"/>
      <point x="730" y="272"/>
      <point x="691" y="177"/>
      <point x="624" y="109" type="curve" smooth="yes"/>
      <point x="557" y="41"/>
      <point x="463" y="0"/>
      <point x="352" y="0" type="curve" smooth="yes"/>
    </contour>
    <contour>
      <point x="201" y="700" type="line"/>
      <point x="201" y="50" type="line"/>
      <point x="377" y="50" type="line" smooth="yes"/>
      <point x="453" y="50"/>
      <point x="520" y="81"/>
      <point x="579" y="143" type="curve" smooth="yes"/>
      <point x="638" y="205"/>
      <point x="667" y="285"/>
      <point x="667" y="383" type="curve" smooth="yes"/>
      <point x="667" y="474"/>
      <point x="639" y="549"/>
      <point x="583" y="608" type="curve" smooth="yes"/>
      <point x="526" y="666"/>
      <point x="454" y="696"/>
      <point x="366" y="699" type="curve" smooth="yes"/>
    </contour>
  </outline>
</glyph>
<glyph name="I" format="2">
  <advance width="316"/>
  <unicode hex="0049"/>
  <outline>
    <contour>
      <point x="53" y="50" type="line"/>
      <point x="53" y="0" type="line"/>
      <point x="263" y="0" type="line"/>
      <point x="263" y="50" type="line"/>
      <point x="188" y="50" type="line"/>
      <point x="188" y="700" type="line"/>
      <point x="263" y="700" type="line"/>
      <point x="263" y="750" type="line"/>
      <point x="53" y="750" type="line"/>
      <point x="53" y="700" type="line"/>
      <point x="128" y="700" type="line"/>
      <point x="128" y="50" type="line"/>
    </contour>
  </outline>
</glyph>
<glyph name="J" format="2">
  <advance width="518"/>
  <unicode hex="004A"/>
  <outline>
    <contour>
      <point x="202" y="-22" type="curve" smooth="yes"/>
      <point x="261" y="-22"/>
      <point x="306" y="-3"/>
      <point x="340" y="31" type="curve" smooth="yes"/>
      <point x="380" y="71"/>
      <point x="397" y="138"/>
      <point x="397" y="215" type="curve" smooth="yes"/>
      <point x="397" y="699" type="line"/>
      <point x="479" y="699" type="line"/>
      <point x="479" y="749" type="line"/>
      <point x="237" y="749" type="line"/>
      <point x="237" y="699" type="line"/>
      <point x="340" y="699" type="line"/>
      <point x="340" y="216" type="line" smooth="yes"/>
      <point x="340" y="149"/>
      <point x="327" y="99"/>
      <point x="298" y="70" type="curve" smooth="yes"/>
      <point x="273" y="45"/>
      <point x="240" y="32"/>
      <point x="202" y="32" type="curve" smooth="yes"/>
      <point x="130" y="32"/>
      <point x="88" y="80"/>
      <point x="84" y="114" type="curve"/>
      <point x="31" y="94" type="line"/>
      <point x="52" y="26"/>
      <point x="122" y="-22"/>
    </contour>
  </outline>
</glyph>
<glyph name="K" format="2">
  <advance width="701"/>
  <unicode hex="004B"/>
  <outline>
    <contour>
      <point x="52" y="0" type="line"/>
      <point x="278" y="0" type="line"/>
      <point x="278" y="50" type="line"/>
      <point x="197" y="50" type="line"/>
      <point x="197" y="251" type="line"/>
      <point x="310" y="373" type="line"/>
      <point x="530" y="50" type="line"/>
      <point x="454" y="50" type="line"/>
      <point x="454" y="0" type="line"/>
      <point x="689" y="0" type="line"/>
      <point x="689" y="50" type="line"/>
      <point x="602" y="50" type="line"/>
      <point x="352" y="418" type="line"/>
      <point x="553" y="635" type="line"/>
      <point x="613" y="700" type="line"/>
      <point x="682" y="700" type="line"/>
      <point x="682" y="750" type="line"/>
      <point x="454" y="750" type="line"/>
      <point x="454" y="700" type="line"/>
      <point x="544" y="700" type="line"/>
      <point x="197" y="325" type="line"/>
      <point x="197" y="700" type="line"/>
      <point x="278" y="700" type="line"/>
      <point x="278" y="750" type="line"/>
      <point x="52" y="750" type="line"/>
      <point x="52" y="700" type="line"/>
      <point x="137" y="700" type="line"/>
      <point x="137" y="50" type="line"/>
      <point x="52" y="50" type="line"/>
    </contour>
  </outline>
</glyph>
<glyph name="N" format="2">
  <advance width="786"/>
  <unicode hex="004E"/>
  <outline>
    <contour>
      <point x="187" y="686" type="line"/>
      <point x="187" y="50" type="line"/>
      <point x="275" y="50" type="line"/>
      <point x="275" y="0" type="line"/>
      <point x="39" y="0" type="line"/>
      <point x="39" y="50" type="line"/>
      <point x="127" y="50" type="line"/>
      <point x="127" y="700" type="line"/>
      <point x="39" y="700" type="line"/>
      <point x="39" y="750" type="line"/>
      <point x="216" y="750" type="line"/>
      <point x="597" y="99" type="line"/>
      <point x="599" y="99" type="line"/>
      <point x="599" y="700" type="line"/>
      <point x="511" y="700" type="line"/>
      <point x="511" y="750" type="line"/>
      <point x="747" y="750" type="line"/>
      <point x="747" y="700" type="line"/>
      <point x="659" y="700" type="line"/>
      <point x="659" y="0" type="line"/>
      <point x="597" y="0" type="line"/>
      <point x="189" y="686" type="line"/>
    </contour>
  </outline>
</glyph>
<glyph name="Q" format="2">
  <advance width="864"/>
  <unicode hex="0051"/>
  <outline>
    <contour>
      <point x="113" y="344" type="curve"/>
      <point x="113" y="343" type="line"/>
      <point x="105" y="433"/>
      <point x="129" y="512"/>
      <point x="184" y="581" type="curve" smooth="yes"/>
      <point x="240" y="649"/>
      <point x="312" y="687"/>
      <point x="401" y="694" type="curve" smooth="yes"/>
      <point x="491" y="702"/>
      <point x="570" y="677"/>
      <point x="636" y="620" type="curve" smooth="yes"/>
      <point x="703" y="563"/>
      <point x="740" y="489"/>
      <point x="748" y="398" type="curve" smooth="yes"/>
      <point x="756" y="308"/>
      <point x="732" y="229"/>
      <point x="676" y="162" type="curve" smooth="yes"/>
      <point x="663" y="145"/>
      <point x="648" y="130"/>
      <point x="632" y="117" type="curve"/>
      <point x="628" y="119"/>
      <point x="625" y="121"/>
      <point x="621" y="123" type="curve" smooth="yes"/>
      <point x="457" y="210"/>
      <point x="318" y="211"/>
      <point x="257" y="135" type="curve" smooth="yes"/>
      <point x="250" y="126"/>
      <point x="249" y="126"/>
      <point x="244" y="106" type="curve"/>
      <point x="238" y="111"/>
      <point x="231" y="116"/>
      <point x="225" y="122" type="curve"/>
      <point x="159" y="179"/>
      <point x="121" y="253"/>
    </contour>
    <contour>
      <point x="442" y="47" type="curve"/>
      <point x="328" y="41"/>
      <point x="279" y="79"/>
      <point x="300" y="103" type="curve" smooth="yes"/>
      <point x="355" y="168"/>
      <point x="508" y="133"/>
      <point x="576" y="81" type="curve"/>
      <point x="542" y="65"/>
      <point x="502" y="54"/>
      <point x="458" y="48" type="curve"/>
      <point x="453" y="47"/>
      <point x="448" y="47"/>
    </contour>
    <contour>
      <point x="873" y="50" type="line"/>
      <point x="872" y="50"/>
      <point x="870" y="49"/>
      <point x="869" y="49" type="curve"/>
      <point x="846" y="48"/>
      <point x="824" y="49"/>
      <point x="799" y="50" type="curve" smooth="yes"/>
      <point x="760" y="51"/>
      <point x="706" y="71"/>
      <point x="684" y="91" type="curve"/>
      <point x="698" y="103"/>
      <point x="710" y="116"/>
      <point x="722" y="130" type="curve" smooth="yes"/>
      <point x="790" y="210"/>
      <point x="819" y="301"/>
      <point x="809" y="404" type="curve" smooth="yes"/>
      <point x="801" y="507"/>
      <point x="756" y="592"/>
      <point x="675" y="659" type="curve" smooth="yes"/>
      <point x="595" y="726"/>
      <point x="502" y="755"/>
      <point x="397" y="746" type="curve" smooth="yes"/>
      <point x="293" y="737"/>
      <point x="207" y="692"/>
      <point x="139" y="612" type="curve" smooth="yes"/>
      <point x="72" y="532"/>
      <point x="43" y="441"/>
      <point x="51" y="339" type="curve"/>
      <point x="51" y="338" type="line"/>
      <point x="61" y="235"/>
      <point x="105" y="150"/>
      <point x="185" y="83" type="curve" smooth="yes"/>
      <point x="265" y="16"/>
      <point x="358" y="-13"/>
      <point x="463" y="-4" type="curve" smooth="yes"/>
      <point x="525" y="1"/>
      <point x="580" y="19"/>
      <point x="628" y="49" type="curve"/>
      <point x="692" y="15"/>
      <point x="732" y="6"/>
      <point x="787" y="0" type="curve" smooth="yes"/>
      <point x="817" y="-3"/>
      <point x="844" y="-5"/>
      <point x="870" y="0" type="curve"/>
      <point x="871" y="0"/>
      <point x="872" y="0"/>
      <point x="873" y="1" type="curve"/>
    </contour>
    <contour>
      <point x="873" y="50" type="line"/>
      <point x="873" y="1" type="line"/>
    </contour>
  </outline>
</glyph>
<glyph name="R" format="2">
  <advance width="656"/>
  <unicode hex="0052"/>
  <outline>
    <contour>
      <point x="190" y="750" type="line"/>
      <point x="50" y="750" type="line"/>
      <point x="50" y="700" type="line"/>
      <point x="127" y="700" type="line"/>
      <point x="127" y="50" type="line"/>
      <point x="50" y="50" type="line"/>
      <point x="50" y="0" type="line"/>
      <point x="264" y="0" type="line"/>
      <point x="264" y="50" type="line"/>
      <point x="187" y="50" type="line"/>
      <point x="187" y="369" type="line"/>
      <point x="289" y="368" type="line" smooth="yes"/>
      <point x="354" y="368"/>
      <point x="409" y="358"/>
      <point x="454" y="339" type="curve" smooth="yes"/>
      <point x="498" y="319"/>
      <point x="520" y="274"/>
      <point x="520" y="205" type="curve" smooth="yes"/>
      <point x="520" y="0" type="line"/>
      <point x="655" y="0" type="line"/>
      <point x="655" y="50" type="line"/>
      <point x="578" y="50" type="line"/>
      <point x="578" y="201" type="line" smooth="yes"/>
      <point x="578" y="293"/>
      <point x="548" y="360"/>
      <point x="446" y="388" type="curve"/>
      <point x="446" y="389" type="line"/>
      <point x="532" y="412"/>
      <point x="582" y="465"/>
      <point x="582" y="564" type="curve" smooth="yes"/>
      <point x="582" y="700"/>
      <point x="469" y="750"/>
      <point x="313" y="750" type="curve" smooth="yes"/>
    </contour>
    <contour>
      <point x="316" y="423" type="curve" smooth="yes"/>
      <point x="272" y="423"/>
      <point x="216" y="424"/>
      <point x="187" y="425" type="curve"/>
      <point x="187" y="701" type="line"/>
      <point x="315" y="701" type="line" smooth="yes"/>
      <point x="444" y="701"/>
      <point x="527" y="667"/>
      <point x="527" y="563" type="curve" smooth="yes"/>
      <point x="527" y="447"/>
      <point x="456" y="423"/>
    </contour>
  </outline>
</glyph>
<glyph name="X" format="2">
  <advance width="769"/>
  <unicode hex="0058"/>
  <outline>
    <contour>
      <point x="291" y="0" type="line"/>
      <point x="45" y="0" type="line"/>
      <point x="45" y="50" type="line"/>
      <point x="134" y="50" type="line"/>
      <point x="348" y="373" type="line"/>
      <point x="348" y="375" type="line"/>
      <point x="134" y="700" type="line"/>
      <point x="45" y="700" type="line"/>
      <point x="45" y="750" type="line"/>
      <point x="291" y="750" type="line"/>
      <point x="291" y="700" type="line"/>
      <point x="202" y="700" type="line"/>
      <point x="382" y="425" type="line"/>
      <point x="384" y="425" type="line"/>
      <point x="567" y="700" type="line"/>
      <point x="478" y="700" type="line"/>
      <point x="478" y="750" type="line"/>
      <point x="724" y="750" type="line"/>
      <point x="724" y="700" type="line"/>
      <point x="635" y="700" type="line"/>
      <point x="419" y="375" type="line"/>
      <point x="419" y="373" type="line"/>
      <point x="634" y="50" type="line"/>
      <point x="723" y="50" type="line"/>
      <point x="723" y="0" type="line"/>
      <point x="477" y="0" type="line"/>
      <point x="477" y="50" type="line"/>
      <point x="566" y="50" type="line"/>
      <point x="384" y="322" type="line"/>
      <point x="382" y="322" type="line"/>
      <point x="202" y="50" type="line"/>
      <point x="291" y="50" type="line"/>
    </contour>
  </outline>
</glyph>
<glyph name="Z" format="2">
  <advance width="599"/>
  <unicode hex="005A"/>
  <outline>
    <contour>
      <point x="102" y="700" type="line"/>
      <point x="102" y="557" type="line"/>
      <point x="46" y="557" type="line"/>
      <point x="46" y="750" type="line"/>
      <point x="554" y="750" type="line"/>
      <point x="554" y="700" type="line"/>
      <point x="113" y="50" type="line"/>
      <point x="493" y="50" type="line"/>
      <point x="493" y="199" type="line"/>
      <point x="549" y="199" type="line"/>
      <point x="549" y="0" type="line"/>
      <point x="45" y="0" type="line"/>
      <point x="45" y="50" type="line"/>
      <point x="485" y="700" type="line"/>
    </contour>
  </outline>
</glyph>
<glyph name="bracketright" format="2">
  <advance width="279"/>
  <unicode hex="005D"/>
  <outline>
    <contour>
      <point x="50" y="-85" type="line"/>
      <point x="254" y="-85" type="line"/>
      <point x="254" y="781" type="line"/>
      <point x="50" y="781" type="line"/>
      <point x="50" y="731" type="line"/>
      <point x="198" y="731" type="line"/>
      <point x="198" y="-36" type="line"/>
      <point x="50" y="-36" type="line"/>
    </contour>
  </outline>
</glyph>
<glyph name="i" format="2">
  <advance width="299"/>
  <unicode hex="0069"/>
  <outline>
    <contour>
      <point x="38" y="0" type="line"/>
      <point x="264" y="0" type="line"/>
      <point x="264" y="51" type="line"/>
      <point x="181" y="51" type="line"/>
      <point x="181" y="475" type="line"/>
      <point x="38" y="475" type="line"/>
      <point x="38" y="423" type="line"/>
      <point x="121" y="423" type="line"/>
      <point x="121" y="51" type="line"/>
      <point x="38" y="51" type="line"/>
    </contour>
    <contour>
      <point x="141" y="614" type="curve" smooth="yes"/>
      <point x="168" y="614"/>
      <point x="190" y="637"/>
      <point x="190" y="666" type="curve" smooth="yes"/>
      <point x="190" y="694"/>
      <point x="168" y="718"/>
      <point x="141" y="718" type="curve" smooth="yes"/>
      <point x="112" y="718"/>
      <point x="90" y="694"/>
      <point x="90" y="666" type="curve" smooth="yes"/>
      <point x="90" y="637"/>
      <point x="112" y="614"/>
    </contour>
  </outline>
</glyph>
<glyph name="l" format="2">
  <advance width="284"/>
  <unicode hex="006C"/>
  <outline>
    <contour>
      <point x="38" y="750" type="line"/>
      <point x="38" y="700" type="line"/>
      <point x="113" y="700" type="line"/>
      <point x="113" y="50" type="line"/>
      <point x="36" y="50" type="line"/>
      <point x="36" y="0" type="line"/>
      <point x="249" y="0" type="line"/>
      <point x="249" y="50" type="line"/>
      <point x="172" y="50" type="line"/>
      <point x="172" y="750" type="line"/>
    </contour>
  </outline>
</glyph>
<glyph name="p" format="2">
  <advance width="648"/>
  <unicode hex="0070"/>
  <outline>
    <contour>
      <point x="33" y="-165" type="line"/>
      <point x="33" y="-215" type="line"/>
      <point x="230" y="-215" type="line"/>
      <point x="230" y="-165" type="line"/>
      <point x="161" y="-165" type="line"/>
      <point x="161" y="95" type="line"/>
      <point x="167" y="85"/>
      <point x="174" y="76"/>
      <point x="182" y="67" type="curve" smooth="yes"/>
      <point x="223" y="22"/>
      <point x="279" y="0"/>
      <point x="350" y="0" type="curve" smooth="yes"/>
      <point x="422" y="0"/>
      <point x="482" y="22"/>
      <point x="529" y="67" type="curve" smooth="yes"/>
      <point x="576" y="112"/>
      <point x="599" y="168"/>
      <point x="598" y="235" type="curve" smooth="yes"/>
      <point x="598" y="302"/>
      <point x="575" y="359"/>
      <point x="528" y="406" type="curve" smooth="yes"/>
      <point x="481" y="452"/>
      <point x="421" y="475"/>
      <point x="350" y="475" type="curve" smooth="yes"/>
      <point x="279" y="475"/>
      <point x="223" y="452"/>
      <point x="182" y="406" type="curve"/>
      <point x="174" y="396"/>
      <point x="166" y="385"/>
      <point x="159" y="374" type="curve"/>
      <point x="159" y="477" type="line"/>
      <point x="36" y="477" type="line"/>
      <point x="36" y="425" type="line"/>
      <point x="102" y="425" type="line"/>
      <point x="102" y="-165" type="line"/>
    </contour>
    <contour>
      <point x="161" y="236" type="line" smooth="yes"/>
      <point x="161" y="350"/>
      <point x="235" y="420"/>
      <point x="350" y="420" type="curve" smooth="yes"/>
      <point x="406" y="420"/>
      <point x="451" y="404"/>
      <point x="486" y="371" type="curve" smooth="yes"/>
      <point x="521" y="338"/>
      <point x="538" y="292"/>
      <point x="538" y="235" type="curve" smooth="yes"/>
      <point x="538" y="178"/>
      <point x="521" y="133"/>
      <point x="486" y="102" type="curve" smooth="yes"/>
      <point x="451" y="70"/>
      <point x="405" y="54"/>
      <point x="348" y="54" type="curve" smooth="yes"/>
      <point x="235" y="54"/>
      <point x="161" y="120"/>
      <point x="161" y="235" type="curve" smooth="yes"/>
    </contour>
    <contour>
      <point x="158" y="373" type="line"/>
      <point x="159" y="373"/>
      <point x="159" y="373"/>
      <point x="159" y="374" type="curve"/>
    </contour>
  </outline>
</glyph>
<glyph name="q" format="2">
  <advance width="618"/>
  <unicode hex="0071"/>
  <outline>
    <contour>
      <point x="613" y="-165" type="line"/>
      <point x="544" y="-165" type="line"/>
      <point x="544" y="425" type="line"/>
      <point x="610" y="425" type="line"/>
      <point x="610" y="477" type="line"/>
      <point x="487" y="477" type="line"/>
      <point x="487" y="374" type="line"/>
      <point x="480" y="385"/>
      <point x="472" y="396"/>
      <point x="464" y="406" type="curve"/>
      <point x="423" y="452"/>
      <point x="367" y="475"/>
      <point x="296" y="475" type="curve" smooth="yes"/>
      <point x="225" y="475"/>
      <point x="166" y="452"/>
      <point x="119" y="406" type="curve" smooth="yes"/>
      <point x="72" y="359"/>
      <point x="48" y="302"/>
      <point x="48" y="235" type="curve" smooth="yes"/>
      <point x="47" y="168"/>
      <point x="71" y="112"/>
      <point x="118" y="67" type="curve" smooth="yes"/>
      <point x="165" y="22"/>
      <point x="224" y="0"/>
      <point x="296" y="0" type="curve" smooth="yes"/>
      <point x="367" y="0"/>
      <point x="423" y="22"/>
      <point x="464" y="67" type="curve" smooth="yes"/>
      <point x="472" y="76"/>
      <point x="479" y="85"/>
      <point x="485" y="95" type="curve"/>
      <point x="485" y="-165" type="line"/>
      <point x="416" y="-165" type="line"/>
      <point x="416" y="-215" type="line"/>
      <point x="613" y="-215" type="line"/>
    </contour>
    <contour>
      <point x="485" y="236" type="curve" smooth="yes"/>
      <point x="485" y="235" type="line" smooth="yes"/>
      <point x="485" y="120"/>
      <point x="411" y="54"/>
      <point x="298" y="54" type="curve" smooth="yes"/>
      <point x="241" y="54"/>
      <point x="196" y="70"/>
      <point x="161" y="102" type="curve" smooth="yes"/>
      <point x="126" y="133"/>
      <point x="108" y="178"/>
      <point x="108" y="235" type="curve" smooth="yes"/>
      <point x="108" y="292"/>
      <point x="125" y="338"/>
      <point x="160" y="371" type="curve" smooth="yes"/>
      <point x="195" y="404"/>
      <point x="240" y="420"/>
      <point x="296" y="420" type="curve" smooth="yes"/>
      <point x="411" y="420"/>
      <point x="485" y="350"/>
    </contour>
    <contour>
      <point x="488" y="373" type="curve"/>
      <point x="487" y="374" type="line"/>
      <point x="487" y="373"/>
      <point x="487" y="373"/>
    </contour>
  </outline>
</glyph>
<glyph name="r" format="2">
  <advance width="406"/>
  <unicode hex="0072"/>
  <outline>
    <contour>
      <point x="46" y="477" type="line"/>
      <point x="46" y="425" type="line"/>
      <point x="121" y="425" type="line"/>
      <point x="121" y="50" type="line"/>
      <point x="45" y="50" type="line"/>
      <point x="45" y="0" type="line"/>
      <point x="257" y="0" type="line"/>
      <point x="257" y="50" type="line"/>
      <point x="181" y="50" type="line"/>
      <point x="181" y="324" type="line"/>
      <point x="181" y="324"/>
      <point x="233" y="458"/>
      <point x="311" y="425" type="curve" smooth="yes"/>
      <point x="341" y="412"/>
      <point x="355" y="375"/>
      <point x="355" y="375" type="curve"/>
      <point x="395" y="410" type="line"/>
      <point x="379" y="459"/>
      <point x="338" y="485"/>
      <point x="300" y="487" type="curve" smooth="yes"/>
      <point x="212" y="491"/>
      <point x="179" y="395"/>
      <point x="179" y="395" type="curve"/>
      <point x="178" y="477" type="line"/>
    </contour>
    <contour>
      <point x="181" y="263" type="line"/>
      <point x="170" y="357"/>
      <point x="188" y="338"/>
      <point x="197" y="357" type="curve"/>
      <point x="166" y="333" type="line"/>
      <point x="168" y="300" type="line"/>
    </contour>
  </outline>
</glyph>
<glyph name="y" format="2">
  <advance width="597"/>
  <unicode hex="0079"/>
  <outline>
    <contour>
      <point x="590" y="426" type="line"/>
      <point x="509" y="426" type="line"/>
      <point x="224" y="-167" type="line"/>
      <point x="316" y="-167" type="line"/>
      <point x="316" y="-215" type="line"/>
      <point x="94" y="-215" type="line"/>
      <point x="94" y="-167" type="line"/>
      <point x="164" y="-167" type="line"/>
      <point x="263" y="40" type="line"/>
      <point x="80" y="426" type="line"/>
      <point x="7" y="426" type="line"/>
      <point x="7" y="475" type="line"/>
      <point x="219" y="475" type="line"/>
      <point x="219" y="426" type="line"/>
      <point x="140" y="426" type="line"/>
      <point x="292" y="102" type="line"/>
      <point x="449" y="426" type="line"/>
      <point x="374" y="426" type="line"/>
      <point x="374" y="475" type="line"/>
      <point x="590" y="475" type="line"/>
    </contour>
  </outline>
</glyph>
<glyph name="bar" format="2">
  <advance width="222"/>
  <unicode hex="007C"/>
  <outline>
    <contour>
      <point x="89" y="-219" type="line"/>
      <point x="133" y="-219" type="line"/>
      <point x="133" y="781" type="line"/>
      <point x="89" y="781" type="line"/>
    </contour>
  </outline>
</glyph>
<glyph name="sterling" format="2">
  <advance width="500"/>
  <unicode hex="00A3"/>
  <outline>
    <contour>
      <point x="500" y="53" type="line"/>
      <point x="500" y="0" type="line"/>
      <point x="8" y="0" type="line"/>
      <point x="8" y="57" type="line"/>
      <point x="25" y="57"/>
      <point x="42" y="63"/>
      <point x="59" y="75" type="curve" smooth="yes"/>
      <point x="76" y="87"/>
      <point x="86" y="98"/>
      <point x="90" y="109" type="curve" smooth="yes"/>
      <point x="94" y="119"/>
      <point x="97" y="133"/>
      <point x="99" y="151" type="curve"/>
      <point x="102" y="168"/>
      <point x="103" y="190"/>
      <point x="103" y="217" type="curve" smooth="yes"/>
      <point x="103" y="354" type="line"/>
      <point x="-4" y="354" type="line"/>
      <point x="-4" y="402" type="line"/>
      <point x="103" y="402" type="line"/>
      <point x="103" y="573" type="line" smooth="yes"/>
      <point x="103" y="630"/>
      <point x="122" y="673"/>
      <point x="161" y="704" type="curve" smooth="yes"/>
      <point x="199" y="734"/>
      <point x="247" y="750"/>
      <point x="304" y="750" type="curve" smooth="yes"/>
      <point x="361" y="750"/>
      <point x="407" y="735"/>
      <point x="441" y="705" type="curve" smooth="yes"/>
      <point x="476" y="676"/>
      <point x="494" y="636"/>
      <point x="496" y="587" type="curve"/>
      <point x="444" y="587" type="line"/>
      <point x="443" y="625"/>
      <point x="428" y="653"/>
      <point x="398" y="671" type="curve" smooth="yes"/>
      <point x="368" y="689"/>
      <point x="336" y="698"/>
      <point x="303" y="698" type="curve" smooth="yes"/>
      <point x="277" y="698"/>
      <point x="255" y="693"/>
      <point x="238" y="682" type="curve" smooth="yes"/>
      <point x="220" y="671"/>
      <point x="203" y="657"/>
      <point x="187" y="640" type="curve" smooth="yes"/>
      <point x="171" y="623"/>
      <point x="163" y="605"/>
      <point x="163" y="585" type="curve" smooth="yes"/>
      <point x="163" y="402" type="line"/>
      <point x="348" y="402" type="line"/>
      <point x="348" y="354" type="line"/>
      <point x="163" y="354" type="line"/>
      <point x="163" y="214" type="line" smooth="yes"/>
      <point x="163" y="139"/>
      <point x="156" y="76"/>
      <point x="127" y="57" type="curve"/>
      <point x="127" y="53" type="line"/>
    </contour>
  </outline>
</glyph>
<glyph name="guillemotleft" format="2">
  <advance width="417"/>
  <unicode hex="00AB"/>
  <outline>
    <contour>
      <point x="52" y="346" type="line"/>
      <point x="176" y="192" type="line"/>
      <point x="239" y="192" type="line"/>
      <point x="116" y="346" type="line"/>
      <point x="239" y="500" type="line"/>
      <point x="176" y="500" type="line"/>
    </contour>
    <contour>
      <point x="197" y="346" type="line"/>
      <point x="321" y="192" type="line"/>
      <point x="384" y="192" type="line"/>
      <point x="261" y="346" type="line"/>
      <point x="384" y="500" type="line"/>
      <point x="321" y="500" type="line"/>
    </contour>
  </outline>
</glyph>
<glyph name="logicalnot" format="2">
  <advance width="600"/>
  <unicode hex="00AC"/>
  <outline>
    <contour>
      <point x="483" y="109" type="line"/>
      <point x="527" y="109" type="line"/>
      <point x="527" y="346" type="line"/>
      <point x="73" y="346" type="line"/>
      <point x="73" y="302" type="line"/>
      <point x="483" y="302" type="line"/>
    </contour>
  </outline>
</glyph>
<glyph name="twosuperior" format="2">
  <advance width="300"/>
  <unicode hex="00B2"/>
  <outline>
    <contour>
      <point x="297" y="289" type="line"/>
      <point x="297" y="393" type="line"/>
      <point x="257" y="393" type="line"/>
      <point x="257" y="322" type="line"/>
      <point x="73" y="322" type="line"/>
      <point x="179" y="439" type="line" smooth="yes"/>
      <point x="222" y="486"/>
      <point x="285" y="549"/>
      <point x="285" y="617" type="curve" smooth="yes"/>
      <point x="285" y="682"/>
      <point x="224" y="722"/>
      <point x="158" y="722" type="curve" smooth="yes"/>
      <point x="79" y="722"/>
      <point x="26" y="672"/>
      <point x="26" y="601" type="curve" smooth="yes"/>
      <point x="26" y="567" type="line"/>
      <point x="66" y="567" type="line"/>
      <point x="66" y="609" type="line" smooth="yes"/>
      <point x="66" y="656"/>
      <point x="105" y="689"/>
      <point x="157" y="689" type="curve" smooth="yes"/>
      <point x="208" y="689"/>
      <point x="245" y="666"/>
      <point x="245" y="617" type="curve" smooth="yes"/>
      <point x="245" y="571"/>
      <point x="212" y="525"/>
      <point x="182" y="492" type="curve" smooth="yes"/>
      <point x="26" y="322" type="line"/>
      <point x="26" y="289" type="line"/>
    </contour>
  </outline>
</glyph>
<glyph name="onesuperior" format="2">
  <advance width="300"/>
  <unicode hex="00B9"/>
  <outline>
    <contour>
      <point x="232" y="289" type="line"/>
      <point x="232" y="322" type="line"/>
      <point x="178" y="322" type="line"/>
      <point x="178" y="712" type="line"/>
      <point x="85" y="712" type="line"/>
      <point x="85" y="679" type="line"/>
      <point x="138" y="679" type="line"/>
      <point x="138" y="322" type="line"/>
      <point x="83" y="322" type="line"/>
      <point x="83" y="289" type="line"/>
    </contour>
  </outline>
</glyph>
<glyph name="Adieresis" format="2">
  <advance width="769"/>
  <unicode hex="00C4"/>
  <outline>
    <contour>
      <point x="254" y="0" type="line"/>
      <point x="254" y="50" type="line"/>
      <point x="174" y="50" type="line"/>
      <point x="238" y="237" type="line"/>
      <point x="529" y="237" type="line"/>
      <point x="593" y="50" type="line"/>
      <point x="513" y="50" type="line"/>
      <point x="513" y="0" type="line"/>
      <point x="749" y="0" type="line"/>
      <point x="749" y="50" type="line"/>
      <point x="661" y="50" type="line"/>
      <point x="443" y="702" type="line"/>
      <point x="508" y="702" type="line"/>
      <point x="508" y="750" type="line"/>
      <point x="262" y="750" type="line"/>
      <point x="262" y="702" type="line"/>
      <point x="327" y="702" type="line"/>
      <point x="108" y="50" type="line"/>
      <point x="20" y="50" type="line"/>
      <point x="20" y="0" type="line"/>
    </contour>
    <contour>
      <point x="255" y="285" type="line"/>
      <point x="383" y="698" type="line"/>
      <point x="385" y="698" type="line"/>
      <point x="512" y="285" type="line"/>
    </contour>
    <contour>
      <point x="262" y="878" type="line"/>
      <point x="327" y="878" type="line"/>
      <point x="327" y="943" type="line"/>
      <point x="262" y="943" type="line"/>
    </contour>
    <contour>
      <point x="441" y="878" type="line"/>
      <point x="506" y="878" type="line"/>
      <point x="506" y="943" type="line"/>
      <point x="441" y="943" type="line"/>
    </contour>
    <contour>
      <point x="475" y="860" type="curve" smooth="yes"/>
      <point x="503" y="860"/>
      <point x="524" y="883"/>
      <point x="524" y="911" type="curve" smooth="yes"/>
      <point x="524" y="939"/>
      <point x="503" y="962"/>
      <point x="475" y="962" type="curve" smooth="yes"/>
      <point x="447" y="962"/>
      <point x="426" y="939"/>
      <point x="426" y="911" type="curve" smooth="yes"/>
      <point x="426" y="883"/>
      <point x="447" y="860"/>
    </contour>
    <contour>
      <point x="295" y="860" type="curve" smooth="yes"/>
      <point x="323" y="860"/>
      <point x="344" y="883"/>
      <point x="344" y="911" type="curve" smooth="yes"/>
      <point x="344" y="939"/>
      <point x="323" y="962"/>
      <point x="295" y="962" type="curve" smooth="yes"/>
      <point x="267" y="962"/>
      <point x="246" y="939"/>
      <point x="246" y="911" type="curve" smooth="yes"/>
      <point x="246" y="883"/>
      <point x="267" y="860"/>
    </contour>
  </outline>
</glyph>
<glyph name="Aring" format="2">
  <advance width="769"/>
  <unicode hex="00C5"/>
  <outline>
    <contour>
      <point x="254" y="0" type="line"/>
      <point x="254" y="50" type="line"/>
      <point x="174" y="50" type="line"/>
      <point x="238" y="237" type="line"/>
      <point x="529" y="237" type="line"/>
      <point x="593" y="50" type="line"/>
      <point x="513" y="50" type="line"/>
      <point x="513" y="0" type="line"/>
      <point x="749" y="0" type="line"/>
      <point x="749" y="50" type="line"/>
      <point x="661" y="50" type="line"/>
      <point x="443" y="702" type="line"/>
      <point x="508" y="702" type="line"/>
      <point x="508" y="750" type="line"/>
      <point x="262" y="750" type="line"/>
      <point x="262" y="702" type="line"/>
      <point x="327" y="702" type="line"/>
      <point x="108" y="50" type="line"/>
      <point x="20" y="50" type="line"/>
      <point x="20" y="0" type="line"/>
    </contour>
    <contour>
      <point x="255" y="285" type="line"/>
      <point x="383" y="698" type="line"/>
      <point x="385" y="698" type="line"/>
      <point x="512" y="285" type="line"/>
    </contour>
    <contour>
      <point x="382" y="855" type="curve" smooth="yes"/>
      <point x="427" y="855"/>
      <point x="467" y="895"/>
      <point x="467" y="941" type="curve" smooth="yes"/>
      <point x="467" y="987"/>
      <point x="427" y="1026"/>
      <point x="382" y="1026" type="curve" smooth="yes"/>
      <point x="335" y="1026"/>
      <point x="296" y="987"/>
      <point x="296" y="941" type="curve" smooth="yes"/>
      <point x="296" y="895"/>
      <point x="335" y="855"/>
    </contour>
    <contour>
      <point x="382" y="886" type="curve" smooth="yes"/>
      <point x="350" y="886"/>
      <point x="327" y="910"/>
      <point x="327" y="941" type="curve" smooth="yes"/>
      <point x="327" y="971"/>
      <point x="350" y="995"/>
      <point x="382" y="995" type="curve" smooth="yes"/>
      <point x="411" y="995"/>
      <point x="436" y="971"/>
      <point x="436" y="941" type="curve" smooth="yes"/>
      <point x="436" y="910"/>
      <point x="411" y="886"/>
    </contour>
  </outline>
</glyph>
<glyph name="AE" format="2">
  <advance width="1016"/>
  <unicode hex="00C6"/>
  <outline>
    <contour>
      <point x="20" y="0" type="line"/>
      <point x="254" y="0" type="line"/>
      <point x="254" y="57" type="line"/>
      <point x="172" y="57" type="line"/>
      <point x="278" y="269" type="line"/>
      <point x="511" y="269" type="line"/>
      <point x="511" y="57" type="line"/>
      <point x="422" y="57" type="line"/>
      <point x="422" y="0" type="line"/>
      <point x="948" y="0" type="line"/>
      <point x="948" y="169" type="line"/>
      <point x="886" y="169" type="line"/>
      <point x="886" y="57" type="line"/>
      <point x="575" y="57" type="line"/>
      <point x="575" y="355" type="line"/>
      <point x="829" y="355" type="line"/>
      <point x="829" y="411" type="line"/>
      <point x="575" y="411" type="line"/>
      <point x="575" y="693" type="line"/>
      <point x="886" y="693" type="line"/>
      <point x="886" y="580" type="line"/>
      <point x="948" y="580" type="line"/>
      <point x="948" y="750" type="line"/>
      <point x="349" y="750" type="line"/>
      <point x="349" y="693" type="line"/>
      <point x="426" y="693" type="line"/>
      <point x="108" y="57" type="line"/>
      <point x="20" y="57" type="line"/>
    </contour>
    <contour>
      <point x="305" y="325" type="line"/>
      <point x="489" y="693" type="line"/>
      <point x="511" y="693" type="line"/>
      <point x="511" y="325" type="line"/>
    </contour>
  </outline>
</glyph>
<glyph name="Ccedilla" format="2">
  <advance width="812"/>
  <unicode hex="00C7"/>
  <outline>
    <contour>
      <point x="742" y="736" type="line"/>
      <point x="742" y="514" type="line"/>
      <point x="683" y="514" type="line"/>
      <point x="656" y="636"/>
      <point x="555" y="696"/>
      <point x="432" y="696" type="curve" smooth="yes"/>
      <point x="341" y="696"/>
      <point x="267" y="666"/>
      <point x="209" y="606" type="curve" smooth="yes"/>
      <point x="150" y="546"/>
      <point x="121" y="469"/>
      <point x="121" y="375" type="curve" smooth="yes"/>
      <point x="121" y="288"/>
      <point x="147" y="213"/>
      <point x="200" y="149" type="curve" smooth="yes"/>
      <point x="253" y="84"/>
      <point x="325" y="52"/>
      <point x="418" y="52" type="curve" smooth="yes"/>
      <point x="557" y="52"/>
      <point x="645" y="115"/>
      <point x="691" y="245" type="curve"/>
      <point x="745" y="225" type="line"/>
      <point x="694" y="74"/>
      <point x="579" y="-2"/>
      <point x="418" y="-2" type="curve" smooth="yes"/>
      <point x="319" y="-2"/>
      <point x="234" y="34"/>
      <point x="165" y="105" type="curve" smooth="yes"/>
      <point x="95" y="176"/>
      <point x="60" y="266"/>
      <point x="60" y="374" type="curve" smooth="yes"/>
      <point x="60" y="476"/>
      <point x="93" y="564"/>
      <point x="160" y="639" type="curve" smooth="yes"/>
      <point x="227" y="714"/>
      <point x="317" y="751"/>
      <point x="432" y="751" type="curve" smooth="yes"/>
      <point x="447" y="751"/>
      <point x="460" y="750"/>
      <point x="475" y="749" type="curve" smooth="yes"/>
      <point x="557" y="740"/>
      <point x="637" y="705"/>
      <point x="685" y="637" type="curve"/>
      <point x="687" y="638" type="line"/>
      <point x="687" y="736" type="line"/>
    </contour>
    <contour>
      <point x="338" y="-198" type="line"/>
      <point x="370" y="-207"/>
      <point x="414" y="-207"/>
      <point x="447" y="-201" type="curve" smooth="yes"/>
      <point x="490" y="-194"/>
      <point x="536" y="-160"/>
      <point x="527" y="-109" type="curve" smooth="yes"/>
      <point x="518" y="-58"/>
      <point x="478" y="-38"/>
      <point x="450" y="-43" type="curve" smooth="yes"/>
      <point x="435" y="-46"/>
      <point x="426" y="-49"/>
      <point x="416" y="-55" type="curve"/>
      <point x="413" y="-54" type="line"/>
      <point x="440" y="0" type="line"/>
      <point x="409" y="0" type="line"/>
      <point x="364" y="-88" type="line"/>
      <point x="382" y="-98" type="line"/>
      <point x="409" y="-81"/>
      <point x="481" y="-66"/>
      <point x="489" y="-111" type="curve" smooth="yes"/>
      <point x="495" y="-148"/>
      <point x="445" y="-168"/>
      <point x="417" y="-171" type="curve" smooth="yes"/>
      <point x="399" y="-173"/>
      <point x="374" y="-169"/>
      <point x="357" y="-166" type="curve"/>
    </contour>
  </outline>
</glyph>
<glyph name="Edieresis" format="2">
  <advance width="623"/>
  <unicode hex="00CB"/>
  <outline>
    <contour>
      <point x="188" y="427" type="line"/>
      <point x="188" y="700" type="line"/>
      <point x="504" y="700" type="line"/>
      <point x="504" y="585" type="line"/>
      <point x="554" y="585" type="line"/>
      <point x="554" y="750" type="line"/>
      <point x="52" y="750" type="line"/>
      <point x="52" y="700" type="line"/>
      <point x="127" y="700" type="line"/>
      <point x="127" y="50" type="line"/>
      <point x="52" y="50" type="line"/>
      <point x="52" y="0" type="line"/>
      <point x="554" y="0" type="line"/>
      <point x="554" y="166" type="line"/>
      <point x="504" y="166" type="line"/>
      <point x="504" y="50" type="line"/>
      <point x="188" y="50" type="line"/>
      <point x="188" y="375" type="line"/>
      <point x="453" y="375" type="line"/>
      <point x="453" y="427" type="line"/>
    </contour>
    <contour>
      <point x="181" y="878" type="line"/>
      <point x="246" y="878" type="line"/>
      <point x="246" y="943" type="line"/>
      <point x="181" y="943" type="line"/>
    </contour>
    <contour>
      <point x="360" y="878" type="line"/>
      <point x="425" y="878" type="line"/>
      <point x="425" y="943" type="line"/>
      <point x="360" y="943" type="line"/>
    </contour>
    <contour>
      <point x="394" y="860" type="curve" smooth="yes"/>
      <point x="422" y="860"/>
      <point x="443" y="883"/>
      <point x="443" y="911" type="curve" smooth="yes"/>
      <point x="443" y="939"/>
      <point x="422" y="962"/>
      <point x="394" y="962" type="curve" smooth="yes"/>
      <point x="366" y="962"/>
      <point x="345" y="939"/>
      <point x="345" y="911" type="curve" smooth="yes"/>
      <point x="345" y="883"/>
      <point x="366" y="860"/>
    </contour>
    <contour>
      <point x="214" y="860" type="curve" smooth="yes"/>
      <point x="242" y="860"/>
      <point x="263" y="883"/>
      <point x="263" y="911" type="curve" smooth="yes"/>
      <point x="263" y="939"/>
      <point x="242" y="962"/>
      <point x="214" y="962" type="curve" smooth="yes"/>
      <point x="186" y="962"/>
      <point x="165" y="939"/>
      <point x="165" y="911" type="curve" smooth="yes"/>
      <point x="165" y="883"/>
      <point x="186" y="860"/>
    </contour>
  </outline>
</glyph>
<glyph name="Idieresis" format="2">
  <advance width="316"/>
  <unicode hex="00CF"/>
  <outline>
    <contour>
      <point x="53" y="50" type="line"/>
      <point x="53" y="0" type="line"/>
      <point x="263" y="0" type="line"/>
      <point x="263" y="50" type="line"/>
      <point x="188" y="50" type="line"/>
      <point x="188" y="700" type="line"/>
      <point x="263" y="700" type="line"/>
      <point x="263" y="750" type="line"/>
      <point x="53" y="750" type="line"/>
      <point x="53" y="700" type="line"/>
      <point x="128" y="700" type="line"/>
      <point x="128" y="50" type="line"/>
    </contour>
    <contour>
      <point x="36" y="878" type="line"/>
      <point x="101" y="878" type="line"/>
      <point x="101" y="943" type="line"/>
      <point x="36" y="943" type="line"/>
    </contour>
    <contour>
      <point x="215" y="878" type="line"/>
      <point x="280" y="878" type="line"/>
      <point x="280" y="943" type="line"/>
      <point x="215" y="943" type="line"/>
    </contour>
    <contour>
      <point x="249" y="860" type="curve" smooth="yes"/>
      <point x="277" y="860"/>
      <point x="298" y="883"/>
      <point x="298" y="911" type="curve" smooth="yes"/>
      <point x="298" y="939"/>
      <point x="277" y="962"/>
      <point x="249" y="962" type="curve" smooth="yes"/>
      <point x="221" y="962"/>
      <point x="200" y="939"/>
      <point x="200" y="911" type="curve" smooth="yes"/>
      <point x="200" y="883"/>
      <point x="221" y="860"/>
    </contour>
    <contour>
      <point x="69" y="860" type="curve" smooth="yes"/>
      <point x="97" y="860"/>
      <point x="118" y="883"/>
      <point x="118" y="911" type="curve" smooth="yes"/>
      <point x="118" y="939"/>
      <point x="97" y="962"/>
      <point x="69" y="962" type="curve" smooth="yes"/>
      <point x="41" y="962"/>
      <point x="20" y="939"/>
      <point x="20" y="911" type="curve" smooth="yes"/>
      <point x="20" y="883"/>
      <point x="41" y="860"/>
    </contour>
  </outline>
</glyph>
<glyph name="Ntilde" format="2">
  <advance width="799"/>
  <unicode hex="00D1"/>
  <outline>
    <contour>
      <point x="187" y="686" type="line"/>
      <point x="187" y="50" type="line"/>
      <point x="275" y="50" type="line"/>
      <point x="275" y="0" type="line"/>
      <point x="39" y="0" type="line"/>
      <point x="39" y="50" type="line"/>
      <point x="127" y="50" type="line"/>
      <point x="127" y="700" type="line"/>
      <point x="39" y="700" type="line"/>
      <point x="39" y="750" type="line"/>
      <point x="216" y="750" type="line"/>
      <point x="597" y="99" type="line"/>
      <point x="599" y="99" type="line"/>
      <point x="599" y="700" type="line"/>
      <point x="511" y="700" type="line"/>
      <point x="511" y="750" type="line"/>
      <point x="747" y="750" type="line"/>
      <point x="747" y="700" type="line"/>
      <point x="659" y="700" type="line"/>
      <point x="659" y="0" type="line"/>
      <point x="597" y="0" type="line"/>
      <point x="189" y="686" type="line"/>
    </contour>
    <contour>
      <point x="475" y="854" type="curve" smooth="yes"/>
      <point x="518" y="854"/>
      <point x="558" y="903"/>
      <point x="560" y="960" type="curve"/>
      <point x="515" y="966" type="line"/>
      <point x="511" y="933"/>
      <point x="496" y="903"/>
      <point x="472" y="903" type="curve" smooth="yes"/>
      <point x="458" y="903"/>
      <point x="447" y="910"/>
      <point x="425" y="928" type="curve" smooth="yes"/>
      <point x="401" y="948"/>
      <point x="376" y="967"/>
      <point x="337" y="967" type="curve" smooth="yes"/>
      <point x="294" y="967"/>
      <point x="254" y="923"/>
      <point x="252" y="866" type="curve"/>
      <point x="297" y="860" type="line"/>
      <point x="301" y="893"/>
      <point x="316" y="918"/>
      <point x="340" y="918" type="curve" smooth="yes"/>
      <point x="354" y="918"/>
      <point x="365" y="911"/>
      <point x="387" y="893" type="curve" smooth="yes"/>
      <point x="411" y="873"/>
      <point x="436" y="854"/>
    </contour>
  </outline>
</glyph>
<glyph name="Oacute" format="2">
  <advance width="812"/>
  <unicode hex="00D3"/>
  <outline>
    <contour>
      <point x="52" y="342" type="line"/>
      <point x="43" y="445"/>
      <point x="73" y="536"/>
      <point x="141" y="617" type="curve" smooth="yes"/>
      <point x="208" y="698"/>
      <point x="295" y="743"/>
      <point x="400" y="752" type="curve" smooth="yes"/>
      <point x="506" y="761"/>
      <point x="599" y="732"/>
      <point x="680" y="664" type="curve" smooth="yes"/>
      <point x="762" y="597"/>
      <point x="806" y="511"/>
      <point x="815" y="408" type="curve" smooth="yes"/>
      <point x="824" y="304"/>
      <point x="795" y="212"/>
      <point x="728" y="132" type="curve" smooth="yes"/>
      <point x="659" y="51"/>
      <point x="573" y="6"/>
      <point x="467" y="-3" type="curve" smooth="yes"/>
      <point x="361" y="-12"/>
      <point x="268" y="17"/>
      <point x="187" y="84" type="curve" smooth="yes"/>
      <point x="106" y="152"/>
      <point x="61" y="237"/>
      <point x="52" y="341" type="curve"/>
    </contour>
    <contour>
      <point x="114" y="347" type="line"/>
      <point x="123" y="256"/>
      <point x="160" y="181"/>
      <point x="227" y="124" type="curve" smooth="yes"/>
      <point x="294" y="66"/>
      <point x="372" y="41"/>
      <point x="462" y="49" type="curve" smooth="yes"/>
      <point x="552" y="57"/>
      <point x="626" y="96"/>
      <point x="681" y="164" type="curve" smooth="yes"/>
      <point x="737" y="231"/>
      <point x="761" y="311"/>
      <point x="754" y="402" type="curve" smooth="yes"/>
      <point x="746" y="493"/>
      <point x="708" y="568"/>
      <point x="641" y="625" type="curve" smooth="yes"/>
      <point x="574" y="682"/>
      <point x="495" y="708"/>
      <point x="404" y="700" type="curve" smooth="yes"/>
      <point x="315" y="693"/>
      <point x="241" y="654"/>
      <point x="186" y="586" type="curve" smooth="yes"/>
      <point x="131" y="516"/>
      <point x="106" y="437"/>
      <point x="114" y="346" type="curve"/>
    </contour>
    <contour>
      <point x="382" y="860" type="line"/>
      <point x="520" y="999" type="line"/>
      <point x="443" y="999" type="line"/>
      <point x="332" y="860" type="line"/>
    </contour>
  </outline>
</glyph>
<glyph name="Otilde" format="2">
  <advance width="812"/>
  <unicode hex="00D5"/>
  <outline>
    <contour>
      <point x="52" y="342" type="line"/>
      <point x="43" y="445"/>
      <point x="73" y="536"/>
      <point x="141" y="617" type="curve" smooth="yes"/>
      <point x="208" y="698"/>
      <point x="295" y="743"/>
      <point x="400" y="752" type="curve" smooth="yes"/>
      <point x="506" y="761"/>
      <point x="599" y="732"/>
      <point x="680" y="664" type="curve" smooth="yes"/>
      <point x="762" y="597"/>
      <point x="806" y="511"/>
      <point x="815" y="408" type="curve" smooth="yes"/>
      <point x="824" y="304"/>
      <point x="795" y="212"/>
      <point x="728" y="132" type="curve" smooth="yes"/>
      <point x="659" y="51"/>
      <point x="573" y="6"/>
      <point x="467" y="-3" type="curve" smooth="yes"/>
      <point x="361" y="-12"/>
      <point x="268" y="17"/>
      <point x="187" y="84" type="curve" smooth="yes"/>
      <point x="106" y="152"/>
      <point x="61" y="237"/>
      <point x="52" y="341" type="curve"/>
    </contour>
    <contour>
      <point x="114" y="347" type="line"/>
      <point x="123" y="256"/>
      <point x="160" y="181"/>
      <point x="227" y="124" type="curve" smooth="yes"/>
      <point x="294" y="66"/>
      <point x="372" y="41"/>
      <point x="462" y="49" type="curve" smooth="yes"/>
      <point x="552" y="57"/>
      <point x="626" y="96"/>
      <point x="681" y="164" type="curve" smooth="yes"/>
      <point x="737" y="231"/>
      <point x="761" y="311"/>
      <point x="754" y="402" type="curve" smooth="yes"/>
      <point x="746" y="493"/>
      <point x="708" y="568"/>
      <point x="641" y="625" type="curve" smooth="yes"/>
      <point x="574" y="682"/>
      <point x="495" y="708"/>
      <point x="404" y="700" type="curve" smooth="yes"/>
      <point x="315" y="693"/>
      <point x="241" y="654"/>
      <point x="186" y="586" type="curve" smooth="yes"/>
      <point x="131" y="516"/>
      <point x="106" y="437"/>
      <point x="114" y="346" type="curve"/>
    </contour>
    <contour>
      <point x="475" y="854" type="curve" smooth="yes"/>
      <point x="518" y="854"/>
      <point x="558" y="903"/>
      <point x="560" y="960" type="curve"/>
      <point x="515" y="966" type="line"/>
      <point x="511" y="933"/>
      <point x="496" y="903"/>
      <point x="472" y="903" type="curve" smooth="yes"/>
      <point x="458" y="903"/>
      <point x="447" y="910"/>
      <point x="425" y="928" type="curve" smooth="yes"/>
      <point x="401" y="948"/>
      <point x="376" y="967"/>
      <point x="337" y="967" type="curve" smooth="yes"/>
      <point x="294" y="967"/>
      <point x="254" y="923"/>
      <point x="252" y="866" type="curve"/>
      <point x="297" y="860" type="line"/>
      <point x="301" y="893"/>
      <point x="316" y="918"/>
      <point x="340" y="918" type="curve" smooth="yes"/>
      <point x="354" y="918"/>
      <point x="365" y="911"/>
      <point x="387" y="893" type="curve" smooth="yes"/>
      <point x="411" y="873"/>
      <point x="436" y="854"/>
    </contour>
  </outline>
</glyph>
<glyph name="Udieresis" format="2">
  <advance width="742"/>
  <unicode hex="00DC"/>
  <outline>
    <contour>
      <point x="371" y="0" type="line"/>
      <point x="620" y="0"/>
      <point x="628" y="198"/>
      <point x="627" y="214" type="curve"/>
      <point x="627" y="699" type="line"/>
      <point x="706" y="699" type="line"/>
      <point x="706" y="750" type="line"/>
      <point x="484" y="750" type="line"/>
      <point x="484" y="700" type="line"/>
      <point x="567" y="700" type="line"/>
      <point x="567" y="212" type="line" smooth="yes"/>
      <point x="567" y="108"/>
      <point x="470" y="47"/>
      <point x="371" y="47" type="curve"/>
    </contour>
    <contour>
      <point x="371" y="47" type="curve"/>
      <point x="229" y="47"/>
      <point x="353" y="47"/>
    </contour>
    <contour>
      <point x="371" y="0" type="curve"/>
      <point x="371" y="47" type="line"/>
      <point x="272" y="47"/>
      <point x="175" y="108"/>
      <point x="175" y="212" type="curve" smooth="yes"/>
      <point x="175" y="700" type="line"/>
      <point x="258" y="700" type="line"/>
      <point x="258" y="750" type="line"/>
      <point x="36" y="750" type="line"/>
      <point x="36" y="699" type="line"/>
      <point x="115" y="699" type="line"/>
      <point x="115" y="214" type="line"/>
      <point x="114" y="198"/>
      <point x="122" y="0"/>
    </contour>
    <contour>
      <point x="371" y="47" type="curve"/>
      <point x="389" y="47"/>
      <point x="513" y="47"/>
    </contour>
    <contour>
      <point x="249" y="878" type="line"/>
      <point x="314" y="878" type="line"/>
      <point x="314" y="943" type="line"/>
      <point x="249" y="943" type="line"/>
    </contour>
    <contour>
      <point x="428" y="878" type="line"/>
      <point x="493" y="878" type="line"/>
      <point x="493" y="943" type="line"/>
      <point x="428" y="943" type="line"/>
    </contour>
    <contour>
      <point x="462" y="860" type="curve" smooth="yes"/>
      <point x="490" y="860"/>
      <point x="511" y="883"/>
      <point x="511" y="911" type="curve" smooth="yes"/>
      <point x="511" y="939"/>
      <point x="490" y="962"/>
      <point x="462" y="962" type="curve" smooth="yes"/>
      <point x="434" y="962"/>
      <point x="413" y="939"/>
      <point x="413" y="911" type="curve" smooth="yes"/>
      <point x="413" y="883"/>
      <point x="434" y="860"/>
    </contour>
    <contour>
      <point x="282" y="860" type="curve" smooth="yes"/>
      <point x="310" y="860"/>
      <point x="331" y="883"/>
      <point x="331" y="911" type="curve" smooth="yes"/>
      <point x="331" y="939"/>
      <point x="310" y="962"/>
      <point x="282" y="962" type="curve" smooth="yes"/>
      <point x="254" y="962"/>
      <point x="233" y="939"/>
      <point x="233" y="911" type="curve" smooth="yes"/>
      <point x="233" y="883"/>
      <point x="254" y="860"/>
    </contour>
  </outline>
</glyph>
<glyph name="Yacute" format="2">
  <advance width="728"/>
  <unicode hex="00DD"/>
  <outline>
    <contour>
      <point x="21" y="750" type="line"/>
      <point x="21" y="700" type="line"/>
      <point x="107" y="700" type="line"/>
      <point x="329" y="326" type="line"/>
      <point x="329" y="50" type="line"/>
      <point x="243" y="50" type="line"/>
      <point x="243" y="0" type="line"/>
      <point x="476" y="0" type="line"/>
      <point x="476" y="50" type="line"/>
      <point x="390" y="50" type="line"/>
      <point x="390" y="326" type="line"/>
      <point x="621" y="700" type="line"/>
      <point x="707" y="700" type="line"/>
      <point x="707" y="750" type="line"/>
      <point x="474" y="750" type="line"/>
      <point x="474" y="700" type="line"/>
      <point x="559" y="700" type="line"/>
      <point x="361" y="380" type="line"/>
      <point x="358" y="380" type="line"/>
      <point x="169" y="700" type="line"/>
      <point x="254" y="700" type="line"/>
      <point x="254" y="750" type="line"/>
    </contour>
    <contour>
      <point x="330" y="860" type="line"/>
      <point x="468" y="999" type="line"/>
      <point x="391" y="999" type="line"/>
      <point x="280" y="860" type="line"/>
    </contour>
  </outline>
</glyph>
<glyph name="Thorn" format="2">
  <advance width="611"/>
  <unicode hex="00DE"/>
  <outline>
    <contour>
      <point x="200" y="173" type="line"/>
      <point x="324" y="173" type="line" smooth="yes"/>
      <point x="472" y="173"/>
      <point x="605" y="232"/>
      <point x="605" y="390" type="curve" smooth="yes"/>
      <point x="605" y="535"/>
      <point x="520" y="608"/>
      <point x="324" y="608" type="curve" smooth="yes"/>
      <point x="200" y="608" type="line"/>
      <point x="200" y="732" type="line"/>
      <point x="292" y="732" type="line"/>
      <point x="292" y="780" type="line"/>
      <point x="54" y="780" type="line"/>
      <point x="54" y="732" type="line"/>
      <point x="146" y="732" type="line"/>
      <point x="146" y="48" type="line"/>
      <point x="54" y="48" type="line"/>
      <point x="54" y="0" type="line"/>
      <point x="292" y="0" type="line"/>
      <point x="292" y="48" type="line"/>
      <point x="200" y="48" type="line"/>
    </contour>
    <contour>
      <point x="200" y="560" type="line"/>
      <point x="313" y="560" type="line" smooth="yes"/>
      <point x="441" y="560"/>
      <point x="551" y="541"/>
      <point x="551" y="390" type="curve" smooth="yes"/>
      <point x="551" y="264"/>
      <point x="454" y="221"/>
      <point x="333" y="221" type="curve" smooth="yes"/>
      <point x="200" y="221" type="line"/>
    </contour>
  </outline>
</glyph>
<glyph name="adieresis" format="2">
  <advance width="642"/>
  <unicode hex="00E4"/>
  <outline>
    <contour>
      <point x="610" y="472" type="line"/>
      <point x="487" y="472" type="line"/>
      <point x="486" y="374" type="line"/>
      <point x="479" y="384"/>
      <point x="471" y="394"/>
      <point x="463" y="404" type="curve"/>
      <point x="422" y="450"/>
      <point x="367" y="473"/>
      <point x="296" y="473" type="curve" smooth="yes"/>
      <point x="225" y="473"/>
      <point x="166" y="450"/>
      <point x="119" y="403" type="curve" smooth="yes"/>
      <point x="72" y="357"/>
      <point x="49" y="301"/>
      <point x="49" y="234" type="curve" smooth="yes"/>
      <point x="48" y="167"/>
      <point x="71" y="111"/>
      <point x="118" y="67" type="curve" smooth="yes"/>
      <point x="165" y="22"/>
      <point x="224" y="0"/>
      <point x="296" y="0" type="curve" smooth="yes"/>
      <point x="367" y="0"/>
      <point x="422" y="22"/>
      <point x="463" y="67" type="curve" smooth="yes"/>
      <point x="471" y="76"/>
      <point x="478" y="85"/>
      <point x="484" y="95" type="curve"/>
      <point x="485" y="0" type="line"/>
      <point x="610" y="0" type="line"/>
      <point x="610" y="50" type="line"/>
      <point x="544" y="50" type="line"/>
      <point x="544" y="425" type="line"/>
      <point x="609" y="425" type="line"/>
    </contour>
    <contour>
      <point x="484" y="236" type="curve" smooth="yes"/>
      <point x="484" y="235" type="line" smooth="yes"/>
      <point x="484" y="120"/>
      <point x="409" y="54"/>
      <point x="298" y="54" type="curve" smooth="yes"/>
      <point x="241" y="54"/>
      <point x="196" y="70"/>
      <point x="161" y="101" type="curve" smooth="yes"/>
      <point x="126" y="133"/>
      <point x="109" y="177"/>
      <point x="109" y="234" type="curve" smooth="yes"/>
      <point x="109" y="291"/>
      <point x="126" y="336"/>
      <point x="160" y="369" type="curve" smooth="yes"/>
      <point x="195" y="402"/>
      <point x="240" y="418"/>
      <point x="296" y="418" type="curve" smooth="yes"/>
      <point x="410" y="418"/>
      <point x="484" y="350"/>
    </contour>
    <contour>
      <point x="484" y="95" type="line"/>
      <point x="486" y="374" type="line"/>
    </contour>
    <contour>
      <point x="208" y="615" type="line"/>
      <point x="273" y="615" type="line"/>
      <point x="273" y="680" type="line"/>
      <point x="208" y="680" type="line"/>
    </contour>
    <contour>
      <point x="387" y="615" type="line"/>
      <point x="452" y="615" type="line"/>
      <point x="452" y="680" type="line"/>
      <point x="387" y="680" type="line"/>
    </contour>
    <contour>
      <point x="421" y="597" type="curve" smooth="yes"/>
      <point x="449" y="597"/>
      <point x="470" y="620"/>
      <point x="470" y="648" type="curve" smooth="yes"/>
      <point x="470" y="676"/>
      <point x="449" y="699"/>
      <point x="421" y="699" type="curve" smooth="yes"/>
      <point x="393" y="699"/>
      <point x="372" y="676"/>
      <point x="372" y="648" type="curve" smooth="yes"/>
      <point x="372" y="620"/>
      <point x="393" y="597"/>
    </contour>
    <contour>
      <point x="241" y="597" type="curve" smooth="yes"/>
      <point x="269" y="597"/>
      <point x="290" y="620"/>
      <point x="290" y="648" type="curve" smooth="yes"/>
      <point x="290" y="676"/>
      <point x="269" y="699"/>
      <point x="241" y="699" type="curve" smooth="yes"/>
      <point x="213" y="699"/>
      <point x="192" y="676"/>
      <point x="192" y="648" type="curve" smooth="yes"/>
      <point x="192" y="620"/>
      <point x="213" y="597"/>
    </contour>
  </outline>
</glyph>
<glyph name="ccedilla" format="2">
  <advance width="547"/>
  <unicode hex="00E7"/>
  <outline>
    <contour>
      <point x="503" y="321" type="curve"/>
      <point x="503" y="477" type="line"/>
      <point x="452" y="477" type="line"/>
      <point x="452" y="411" type="line"/>
      <point x="409" y="456"/>
      <point x="348" y="480"/>
      <point x="280" y="480" type="curve" smooth="yes"/>
      <point x="145" y="480"/>
      <point x="46" y="399"/>
      <point x="46" y="242" type="curve" smooth="yes"/>
      <point x="48" y="66"/>
      <point x="143" y="-3"/>
      <point x="281" y="-3" type="curve" smooth="yes"/>
      <point x="464" y="-3"/>
      <point x="501" y="114"/>
      <point x="501" y="114" type="curve"/>
      <point x="451" y="134" type="line"/>
      <point x="451" y="134"/>
      <point x="423" y="49"/>
      <point x="281" y="49" type="curve" smooth="yes"/>
      <point x="181" y="49"/>
      <point x="99" y="103"/>
      <point x="99" y="242" type="curve" smooth="yes"/>
      <point x="99" y="376"/>
      <point x="200" y="426"/>
      <point x="281" y="426" type="curve" smooth="yes"/>
      <point x="352" y="426"/>
      <point x="423" y="397"/>
      <point x="452" y="322" type="curve"/>
      <point x="452" y="321"/>
      <point x="502" y="322"/>
    </contour>
    <contour>
      <point x="211" y="-199" type="line"/>
      <point x="243" y="-208"/>
      <point x="287" y="-208"/>
      <point x="320" y="-202" type="curve" smooth="yes"/>
      <point x="363" y="-195"/>
      <point x="409" y="-161"/>
      <point x="400" y="-110" type="curve" smooth="yes"/>
      <point x="391" y="-59"/>
      <point x="351" y="-39"/>
      <point x="323" y="-44" type="curve" smooth="yes"/>
      <point x="308" y="-47"/>
      <point x="299" y="-50"/>
      <point x="289" y="-56" type="curve"/>
      <point x="286" y="-55" type="line"/>
      <point x="313" y="-1" type="line"/>
      <point x="282" y="-1" type="line"/>
      <point x="237" y="-89" type="line"/>
      <point x="255" y="-99" type="line"/>
      <point x="282" y="-82"/>
      <point x="354" y="-67"/>
      <point x="362" y="-112" type="curve" smooth="yes"/>
      <point x="368" y="-149"/>
      <point x="318" y="-169"/>
      <point x="290" y="-172" type="curve" smooth="yes"/>
      <point x="272" y="-174"/>
      <point x="247" y="-170"/>
      <point x="230" y="-167" type="curve"/>
    </contour>
  </outline>
</glyph>
<glyph name="idieresis" format="2">
  <advance width="297"/>
  <unicode hex="00EF"/>
  <outline>
    <contour>
      <point x="48" y="477" type="line"/>
      <point x="48" y="425" type="line"/>
      <point x="125" y="425" type="line"/>
      <point x="125" y="50" type="line"/>
      <point x="48" y="50" type="line"/>
      <point x="48" y="0" type="line"/>
      <point x="262" y="0" type="line"/>
      <point x="262" y="50" type="line"/>
      <point x="185" y="50" type="line"/>
      <point x="185" y="477" type="line"/>
      <point x="160" y="477"/>
      <point x="123" y="477"/>
      <point x="123" y="477" type="curve"/>
    </contour>
    <contour>
      <point x="182" y="425" type="line"/>
      <point x="184" y="477" type="line"/>
    </contour>
    <contour>
      <point x="23" y="653" type="line"/>
      <point x="88" y="653" type="line"/>
      <point x="88" y="718" type="line"/>
      <point x="23" y="718" type="line"/>
    </contour>
    <contour>
      <point x="202" y="653" type="line"/>
      <point x="267" y="653" type="line"/>
      <point x="267" y="718" type="line"/>
      <point x="202" y="718" type="line"/>
    </contour>
    <contour>
      <point x="236" y="635" type="curve" smooth="yes"/>
      <point x="264" y="635"/>
      <point x="285" y="658"/>
      <point x="285" y="686" type="curve" smooth="yes"/>
      <point x="285" y="714"/>
      <point x="264" y="737"/>
      <point x="236" y="737" type="curve" smooth="yes"/>
      <point x="208" y="737"/>
      <point x="187" y="714"/>
      <point x="187" y="686" type="curve" smooth="yes"/>
      <point x="187" y="658"/>
      <point x="208" y="635"/>
    </contour>
    <contour>
      <point x="56" y="635" type="curve" smooth="yes"/>
      <point x="84" y="635"/>
      <point x="105" y="658"/>
      <point x="105" y="686" type="curve" smooth="yes"/>
      <point x="105" y="714"/>
      <point x="84" y="737"/>
      <point x="56" y="737" type="curve" smooth="yes"/>
      <point x="28" y="737"/>
      <point x="7" y="714"/>
      <point x="7" y="686" type="curve" smooth="yes"/>
      <point x="7" y="658"/>
      <point x="28" y="635"/>
    </contour>
  </outline>
</glyph>
<glyph name="divide" format="2">
  <advance width="394"/>
  <unicode hex="00F7"/>
  <outline>
    <contour>
      <point x="357" y="351" type="line"/>
      <point x="357" y="399" type="line"/>
      <point x="37" y="399" type="line"/>
      <point x="37" y="351" type="line"/>
    </contour>
    <contour>
      <point x="197" y="463" type="curve" smooth="yes"/>
      <point x="219" y="463"/>
      <point x="238" y="483"/>
      <point x="238" y="506" type="curve" smooth="yes"/>
      <point x="238" y="529"/>
      <point x="219" y="549"/>
      <point x="197" y="549" type="curve" smooth="yes"/>
      <point x="174" y="549"/>
      <point x="155" y="529"/>
      <point x="155" y="506" type="curve" smooth="yes"/>
      <point x="155" y="483"/>
      <point x="174" y="463"/>
    </contour>
    <contour>
      <point x="197" y="201" type="curve" smooth="yes"/>
      <point x="219" y="201"/>
      <point x="238" y="221"/>
      <point x="238" y="244" type="curve" smooth="yes"/>
      <point x="238" y="267"/>
      <point x="219" y="287"/>
      <point x="197" y="287" type="curve" smooth="yes"/>
      <point x="174" y="287"/>
      <point x="155" y="267"/>
      <point x="155" y="244" type="curve" smooth="yes"/>
      <point x="155" y="221"/>
      <point x="174" y="201"/>
    </contour>
  </outline>
</glyph>
<glyph name="yacute" format="2">
  <advance width="597"/>
  <unicode hex="00FD"/>
  <outline>
    <contour>
      <point x="590" y="426" type="line"/>
      <point x="509" y="426" type="line"/>
      <point x="224" y="-167" type="line"/>
      <point x="316" y="-167" type="line"/>
      <point x="316" y="-215" type="line"/>
      <point x="94" y="-215" type="line"/>
      <point x="94" y="-167" type="line"/>
      <point x="164" y="-167" type="line"/>
      <point x="263" y="40" type="line"/>
      <point x="80" y="426" type="line"/>
      <point x="7" y="426" type="line"/>
      <point x="7" y="475" type="line"/>
      <point x="219" y="475" type="line"/>
      <point x="219" y="426" type="line"/>
      <point x="140" y="426" type="line"/>
      <point x="292" y="102" type="line"/>
      <point x="449" y="426" type="line"/>
      <point x="374" y="426" type="line"/>
      <point x="374" y="475" type="line"/>
      <point x="590" y="475" type="line"/>
    </contour>
    <contour>
      <point x="255" y="611" type="line"/>
      <point x="393" y="750" type="line"/>
      <point x="316" y="750" type="line"/>
      <point x="205" y="611" type="line"/>
    </contour>
  </outline>
</glyph>
<glyph name="Abreve" format="2">
  <advance width="769"/>
  <unicode hex="0102"/>
  <outline>
    <contour>
      <point x="254" y="0" type="line"/>
      <point x="254" y="50" type="line"/>
      <point x="174" y="50" type="line"/>
      <point x="238" y="237" type="line"/>
      <point x="529" y="237" type="line"/>
      <point x="593" y="50" type="line"/>
      <point x="513" y="50" type="line"/>
      <point x="513" y="0" type="line"/>
      <point x="749" y="0" type="line"/>
      <point x="749" y="50" type="line"/>
      <point x="661" y="50" type="line"/>
      <point x="443" y="702" type="line"/>
      <point x="508" y="702" type="line"/>
      <point x="508" y="750" type="line"/>
      <point x="262" y="750" type="line"/>
      <point x="262" y="702" type="line"/>
      <point x="327" y="702" type="line"/>
      <point x="108" y="50" type="line"/>
      <point x="20" y="50" type="line"/>
      <point x="20" y="0" type="line"/>
    </contour>
    <contour>
      <point x="255" y="285" type="line"/>
      <point x="383" y="698" type="line"/>
      <point x="385" y="698" type="line"/>
      <point x="512" y="285" type="line"/>
    </contour>
    <contour>
      <point x="380" y="903" type="line" smooth="yes"/>
      <point x="330" y="904"/>
      <point x="295" y="926"/>
      <point x="287" y="969" type="curve"/>
      <point x="246" y="963" type="line"/>
      <point x="257" y="896"/>
      <point x="296" y="861"/>
      <point x="380" y="860" type="curve" smooth="yes"/>
      <point x="389" y="860" type="line" smooth="yes"/>
      <point x="472" y="861"/>
      <point x="512" y="896"/>
      <point x="523" y="963" type="curve"/>
      <point x="482" y="969" type="line"/>
      <point x="474" y="926"/>
      <point x="439" y="904"/>
      <point x="389" y="903" type="curve"/>
    </contour>
  </outline>
</glyph>
<glyph name="Aogonek" format="2">
  <advance width="769"/>
  <unicode hex="0104"/>
  <outline>
    <contour>
      <point x="254" y="0" type="line"/>
      <point x="254" y="50" type="line"/>
      <point x="174" y="50" type="line"/>
      <point x="238" y="237" type="line"/>
      <point x="529" y="237" type="line"/>
      <point x="593" y="50" type="line"/>
      <point x="513" y="50" type="line"/>
      <point x="513" y="0" type="line"/>
      <point x="749" y="0" type="line"/>
      <point x="749" y="50" type="line"/>
      <point x="661" y="50" type="line"/>
      <point x="443" y="702" type="line"/>
      <point x="508" y="702" type="line"/>
      <point x="508" y="750" type="line"/>
      <point x="262" y="750" type="line"/>
      <point x="262" y="702" type="line"/>
      <point x="327" y="702" type="line"/>
      <point x="108" y="50" type="line"/>
      <point x="20" y="50" type="line"/>
      <point x="20" y="0" type="line"/>
    </contour>
    <contour>
      <point x="255" y="285" type="line"/>
      <point x="383" y="698" type="line"/>
      <point x="385" y="698" type="line"/>
      <point x="512" y="285" type="line"/>
    </contour>
    <contour>
      <point x="663" y="-193" type="curve" smooth="yes"/>
      <point x="698" y="-184"/>
      <point x="740" y="-149"/>
      <point x="751" y="-135" type="curve"/>
      <point x="727" y="-107" type="line"/>
      <point x="710" y="-124"/>
      <point x="686" y="-144"/>
      <point x="655" y="-152" type="curve" smooth="yes"/>
      <point x="618" y="-161"/>
      <point x="592" y="-145"/>
      <point x="583" y="-115" type="curve" smooth="yes"/>
      <point x="568" y="-65"/>
      <point x="622" y="-3"/>
      <point x="689" y="35" type="curve"/>
      <point x="629" y="35" type="line"/>
      <point x="568" y="-4"/>
      <point x="523" y="-73"/>
      <point x="541" y="-136" type="curve" smooth="yes"/>
      <point x="556" y="-188"/>
      <point x="598" y="-212"/>
    </contour>
  </outline>
</glyph>
<glyph name="dcaron" format="2">
  <advance width="733"/>
  <unicode hex="010F"/>
  <outline>
    <contour>
      <point x="597" y="548" type="line"/>
      <point x="650" y="750" type="line"/>
      <point x="709" y="750" type="line"/>
      <point x="633" y="548" type="line"/>
    </contour>
    <contour>
      <point x="414" y="750" type="line"/>
      <point x="414" y="700" type="line"/>
      <point x="487" y="700" type="line"/>
      <point x="487" y="374" type="line"/>
      <point x="480" y="385"/>
      <point x="472" y="396"/>
      <point x="464" y="406" type="curve"/>
      <point x="423" y="452"/>
      <point x="367" y="475"/>
      <point x="296" y="475" type="curve" smooth="yes"/>
      <point x="225" y="475"/>
      <point x="166" y="452"/>
      <point x="119" y="406" type="curve" smooth="yes"/>
      <point x="72" y="359"/>
      <point x="48" y="302"/>
      <point x="48" y="235" type="curve" smooth="yes"/>
      <point x="47" y="168"/>
      <point x="71" y="112"/>
      <point x="118" y="67" type="curve" smooth="yes"/>
      <point x="165" y="22"/>
      <point x="224" y="0"/>
      <point x="296" y="0" type="curve" smooth="yes"/>
      <point x="367" y="0"/>
      <point x="423" y="22"/>
      <point x="464" y="67" type="curve" smooth="yes"/>
      <point x="472" y="76"/>
      <point x="479" y="85"/>
      <point x="485" y="95" type="curve"/>
      <point x="486" y="96"/>
      <point x="486" y="97"/>
      <point x="487" y="98" type="curve"/>
      <point x="487" y="0" type="line"/>
      <point x="613" y="0" type="line"/>
      <point x="613" y="50" type="line"/>
      <point x="539" y="50" type="line"/>
      <point x="539" y="750" type="line"/>
    </contour>
    <contour>
      <point x="485" y="224" type="line" smooth="yes"/>
      <point x="485" y="220"/>
      <point x="485" y="216"/>
      <point x="484" y="213" type="curve"/>
      <point x="475" y="111"/>
      <point x="404" y="54"/>
      <point x="298" y="54" type="curve" smooth="yes"/>
      <point x="241" y="54"/>
      <point x="196" y="70"/>
      <point x="161" y="102" type="curve" smooth="yes"/>
      <point x="126" y="133"/>
      <point x="108" y="178"/>
      <point x="108" y="235" type="curve" smooth="yes"/>
      <point x="108" y="292"/>
      <point x="125" y="338"/>
      <point x="160" y="371" type="curve" smooth="yes"/>
      <point x="195" y="404"/>
      <point x="240" y="420"/>
      <point x="296" y="420" type="curve" smooth="yes"/>
      <point x="403" y="420"/>
      <point x="475" y="359"/>
      <point x="484" y="258" type="curve"/>
      <point x="485" y="254"/>
      <point x="485" y="250"/>
      <point x="485" y="247" type="curve" smooth="yes"/>
    </contour>
  </outline>
</glyph>
<glyph name="Emacron" format="2">
  <advance width="623"/>
  <unicode hex="0112"/>
  <outline>
    <contour>
      <point x="188" y="427" type="line"/>
      <point x="188" y="700" type="line"/>
      <point x="504" y="700" type="line"/>
      <point x="504" y="585" type="line"/>
      <point x="554" y="585" type="line"/>
      <point x="554" y="750" type="line"/>
      <point x="52" y="750" type="line"/>
      <point x="52" y="700" type="line"/>
      <point x="127" y="700" type="line"/>
      <point x="127" y="50" type="line"/>
      <point x="52" y="50" type="line"/>
      <point x="52" y="0" type="line"/>
      <point x="554" y="0" type="line"/>
      <point x="554" y="166" type="line"/>
      <point x="504" y="166" type="line"/>
      <point x="504" y="50" type="line"/>
      <point x="188" y="50" type="line"/>
      <point x="188" y="375" type="line"/>
      <point x="453" y="375" type="line"/>
      <point x="453" y="427" type="line"/>
    </contour>
    <contour>
      <point x="166" y="860" type="line"/>
      <point x="441" y="860" type="line"/>
      <point x="441" y="906" type="line"/>
      <point x="166" y="906" type="line"/>
    </contour>
  </outline>
</glyph>
<glyph name="Edotaccent" format="2">
  <advance width="623"/>
  <unicode hex="0116"/>
  <outline>
    <contour>
      <point x="188" y="427" type="line"/>
      <point x="188" y="700" type="line"/>
      <point x="504" y="700" type="line"/>
      <point x="504" y="585" type="line"/>
      <point x="554" y="585" type="line"/>
      <point x="554" y="750" type="line"/>
      <point x="52" y="750" type="line"/>
      <point x="52" y="700" type="line"/>
      <point x="127" y="700" type="line"/>
      <point x="127" y="50" type="line"/>
      <point x="52" y="50" type="line"/>
      <point x="52" y="0" type="line"/>
      <point x="554" y="0" type="line"/>
      <point x="554" y="166" type="line"/>
      <point x="504" y="166" type="line"/>
      <point x="504" y="50" type="line"/>
      <point x="188" y="50" type="line"/>
      <point x="188" y="375" type="line"/>
      <point x="453" y="375" type="line"/>
      <point x="453" y="427" type="line"/>
    </contour>
    <contour>
      <point x="304" y="860" type="curve" smooth="yes"/>
      <point x="333" y="860"/>
      <point x="355" y="884"/>
      <point x="355" y="913" type="curve" smooth="yes"/>
      <point x="355" y="942"/>
      <point x="333" y="966"/>
      <point x="304" y="966" type="curve" smooth="yes"/>
      <point x="275" y="966"/>
      <point x="253" y="942"/>
      <point x="253" y="913" type="curve" smooth="yes"/>
      <point x="253" y="884"/>
      <point x="275" y="860"/>
    </contour>
  </outline>
</glyph>
<glyph name="eogonek" format="2">
  <advance width="554"/>
  <unicode hex="0119"/>
  <outline>
    <contour>
      <point x="509" y="221" type="line"/>
      <point x="509" y="221"/>
      <point x="510" y="243"/>
      <point x="510" y="244" type="curve" smooth="yes"/>
      <point x="510" y="397"/>
      <point x="405" y="480"/>
      <point x="276" y="480" type="curve" smooth="yes"/>
      <point x="141" y="480"/>
      <point x="44" y="397"/>
      <point x="44" y="242" type="curve" smooth="yes"/>
      <point x="46" y="66"/>
      <point x="139" y="-3"/>
      <point x="277" y="-3" type="curve" smooth="yes"/>
      <point x="378" y="-3"/>
      <point x="455" y="33"/>
      <point x="490" y="120" type="curve"/>
      <point x="441" y="142" type="line"/>
      <point x="441" y="141"/>
      <point x="440" y="141"/>
      <point x="440" y="140" type="curve"/>
      <point x="409" y="72"/>
      <point x="346" y="48"/>
      <point x="277" y="49" type="curve" smooth="yes"/>
      <point x="177" y="51"/>
      <point x="101" y="103"/>
      <point x="101" y="221" type="curve"/>
      <point x="456" y="221" type="line"/>
    </contour>
    <contour>
      <point x="277" y="429" type="curve" smooth="yes"/>
      <point x="369" y="429"/>
      <point x="454" y="375"/>
      <point x="454" y="267" type="curve"/>
      <point x="101" y="267" type="line"/>
      <point x="101" y="375"/>
      <point x="191" y="432"/>
    </contour>
    <contour>
      <point x="490" y="120" type="line"/>
      <point x="491" y="119" type="line"/>
    </contour>
    <contour>
      <point x="296" y="-197" type="curve" smooth="yes"/>
      <point x="331" y="-188"/>
      <point x="373" y="-153"/>
      <point x="384" y="-139" type="curve"/>
      <point x="360" y="-111" type="line"/>
      <point x="343" y="-128"/>
      <point x="319" y="-148"/>
      <point x="288" y="-156" type="curve" smooth="yes"/>
      <point x="251" y="-165"/>
      <point x="225" y="-149"/>
      <point x="216" y="-119" type="curve" smooth="yes"/>
      <point x="201" y="-69"/>
      <point x="255" y="-7"/>
      <point x="322" y="31" type="curve"/>
      <point x="262" y="31" type="line"/>
      <point x="201" y="-8"/>
      <point x="156" y="-77"/>
      <point x="174" y="-140" type="curve" smooth="yes"/>
      <point x="189" y="-192"/>
      <point x="231" y="-216"/>
    </contour>
  </outline>
</glyph>
<glyph name="Gdotaccent" format="2">
  <advance width="938"/>
  <unicode hex="0120"/>
  <outline>
    <contour>
      <point x="708" y="0" type="line"/>
      <point x="708" y="119" type="line"/>
      <point x="706" y="119" type="line"/>
      <point x="667" y="55"/>
      <point x="609" y="19"/>
      <point x="553" y="0" type="curve" smooth="yes"/>
      <point x="517" y="-11"/>
      <point x="481" y="-16"/>
      <point x="450" y="-16" type="curve" smooth="yes"/>
      <point x="325" y="-16"/>
      <point x="228" y="23"/>
      <point x="159" y="100" type="curve" smooth="yes"/>
      <point x="90" y="177"/>
      <point x="55" y="266"/>
      <point x="55" y="367" type="curve" smooth="yes"/>
      <point x="55" y="409"/>
      <point x="63" y="459"/>
      <point x="83" y="511" type="curve" smooth="yes"/>
      <point x="106" y="571"/>
      <point x="147" y="626"/>
      <point x="206" y="676" type="curve" smooth="yes"/>
      <point x="264" y="725"/>
      <point x="347" y="750"/>
      <point x="456" y="750" type="curve" smooth="yes"/>
      <point x="490" y="750"/>
      <point x="535" y="743"/>
      <point x="582" y="723" type="curve" smooth="yes"/>
      <point x="625" y="706"/>
      <point x="666" y="680"/>
      <point x="698" y="640" type="curve"/>
      <point x="700" y="641" type="line"/>
      <point x="700" y="735" type="line"/>
      <point x="749" y="735" type="line"/>
      <point x="749" y="511" type="line"/>
      <point x="700" y="511" type="line"/>
      <point x="691" y="565"/>
      <point x="667" y="608"/>
      <point x="626" y="639" type="curve" smooth="yes"/>
      <point x="585" y="670"/>
      <point x="542" y="689"/>
      <point x="495" y="697" type="curve" smooth="yes"/>
      <point x="476" y="700"/>
      <point x="460" y="701"/>
      <point x="444" y="701" type="curve" smooth="yes"/>
      <point x="347" y="701"/>
      <point x="269" y="668"/>
      <point x="210" y="602" type="curve" smooth="yes"/>
      <point x="151" y="536"/>
      <point x="121" y="458"/>
      <point x="121" y="367" type="curve" smooth="yes"/>
      <point x="121" y="265"/>
      <point x="153" y="184"/>
      <point x="216" y="123" type="curve" smooth="yes"/>
      <point x="279" y="62"/>
      <point x="357" y="32"/>
      <point x="450" y="32" type="curve" smooth="yes"/>
      <point x="523" y="32"/>
      <point x="585" y="56"/>
      <point x="635" y="104" type="curve" smooth="yes"/>
      <point x="685" y="151"/>
      <point x="712" y="208"/>
      <point x="715" y="274" type="curve"/>
      <point x="485" y="275" type="line"/>
      <point x="485" y="324" type="line"/>
      <point x="844" y="324" type="line"/>
      <point x="844" y="275" type="line"/>
      <point x="763" y="275" type="line"/>
      <point x="763" y="0" type="line"/>
    </contour>
    <contour>
      <point x="456" y="860" type="curve" smooth="yes"/>
      <point x="485" y="860"/>
      <point x="507" y="884"/>
      <point x="507" y="913" type="curve" smooth="yes"/>
      <point x="507" y="942"/>
      <point x="485" y="966"/>
      <point x="456" y="966" type="curve" smooth="yes"/>
      <point x="427" y="966"/>
      <point x="405" y="942"/>
      <point x="405" y="913" type="curve" smooth="yes"/>
      <point x="405" y="884"/>
      <point x="427" y="860"/>
    </contour>
  </outline>
</glyph>
<glyph name="hcircumflex" format="2">
  <advance width="595"/>
  <unicode hex="0125"/>
  <outline>
    <contour>
      <point x="107" y="50" type="line"/>
      <point x="33" y="50" type="line"/>
      <point x="33" y="0" type="line"/>
      <point x="244" y="0" type="line"/>
      <point x="244" y="50" type="line"/>
      <point x="167" y="50" type="line"/>
      <point x="167" y="301" type="line"/>
      <point x="167" y="301"/>
      <point x="235" y="456"/>
      <point x="367" y="420" type="curve" smooth="yes"/>
      <point x="401" y="411"/>
      <point x="433" y="371"/>
      <point x="434" y="322" type="curve" smooth="yes"/>
      <point x="434" y="50" type="line"/>
      <point x="357" y="50" type="line"/>
      <point x="357" y="0" type="line"/>
      <point x="565" y="0" type="line"/>
      <point x="565" y="50" type="line"/>
      <point x="494" y="50" type="line"/>
      <point x="494" y="323" type="line" smooth="yes"/>
      <point x="494" y="403"/>
      <point x="444" y="477"/>
      <point x="321" y="477" type="curve" smooth="yes"/>
      <point x="223" y="477"/>
      <point x="177" y="404"/>
      <point x="167" y="387" type="curve"/>
      <point x="167" y="749" type="line"/>
      <point x="34" y="749" type="line"/>
      <point x="34" y="700" type="line"/>
      <point x="107" y="700" type="line"/>
    </contour>
    <contour>
      <point x="164" y="830" type="line"/>
      <point x="273" y="931" type="line"/>
      <point x="382" y="830" type="line"/>
      <point x="417" y="860" type="line"/>
      <point x="273" y="994" type="line"/>
      <point x="129" y="860" type="line"/>
    </contour>
  </outline>
</glyph>
<glyph name="hbar" format="2">
  <advance width="595"/>
  <unicode hex="0127"/>
  <outline>
    <contour>
      <point x="105" y="623" type="line"/>
      <point x="33" y="623" type="line"/>
      <point x="33" y="575" type="line"/>
      <point x="320" y="575" type="line"/>
      <point x="320" y="623" type="line"/>
      <point x="157" y="623" type="line"/>
    </contour>
    <contour>
      <point x="107" y="50" type="line"/>
      <point x="33" y="50" type="line"/>
      <point x="33" y="0" type="line"/>
      <point x="244" y="0" type="line"/>
      <point x="244" y="50" type="line"/>
      <point x="167" y="50" type="line"/>
      <point x="167" y="301" type="line"/>
      <point x="167" y="301"/>
      <point x="235" y="456"/>
      <point x="367" y="420" type="curve" smooth="yes"/>
      <point x="401" y="411"/>
      <point x="433" y="371"/>
      <point x="434" y="322" type="curve" smooth="yes"/>
      <point x="434" y="50" type="line"/>
      <point x="357" y="50" type="line"/>
      <point x="357" y="0" type="line"/>
      <point x="565" y="0" type="line"/>
      <point x="565" y="50" type="line"/>
      <point x="494" y="50" type="line"/>
      <point x="494" y="323" type="line" smooth="yes"/>
      <point x="494" y="403"/>
      <point x="444" y="477"/>
      <point x="321" y="477" type="curve" smooth="yes"/>
      <point x="223" y="477"/>
      <point x="177" y="404"/>
      <point x="167" y="387" type="curve"/>
      <point x="167" y="749" type="line"/>
      <point x="34" y="749" type="line"/>
      <point x="34" y="700" type="line"/>
      <point x="107" y="700" type="line"/>
    </contour>
  </outline>
</glyph>
<glyph name="itilde" format="2">
  <advance width="297"/>
  <unicode hex="0129"/>
  <outline>
    <contour>
      <point x="48" y="477" type="line"/>
      <point x="48" y="425" type="line"/>
      <point x="125" y="425" type="line"/>
      <point x="125" y="50" type="line"/>
      <point x="48" y="50" type="line"/>
      <point x="48" y="0" type="line"/>
      <point x="262" y="0" type="line"/>
      <point x="262" y="50" type="line"/>
      <point x="185" y="50" type="line"/>
      <point x="185" y="477" type="line"/>
      <point x="160" y="477"/>
      <point x="123" y="477"/>
      <point x="123" y="477" type="curve"/>
    </contour>
    <contour>
      <point x="182" y="425" type="line"/>
      <point x="184" y="477" type="line"/>
    </contour>
    <contour>
      <point x="190" y="594" type="curve" smooth="yes"/>
      <point x="233" y="594"/>
      <point x="273" y="643"/>
      <point x="275" y="700" type="curve"/>
      <point x="230" y="706" type="line"/>
      <point x="226" y="673"/>
      <point x="211" y="643"/>
      <point x="187" y="643" type="curve" smooth="yes"/>
      <point x="173" y="643"/>
      <point x="162" y="650"/>
      <point x="140" y="668" type="curve" smooth="yes"/>
      <point x="116" y="688"/>
      <point x="91" y="707"/>
      <point x="52" y="707" type="curve" smooth="yes"/>
      <point x="9" y="707"/>
      <point x="-31" y="663"/>
      <point x="-33" y="606" type="curve"/>
      <point x="12" y="600" type="line"/>
      <point x="16" y="633"/>
      <point x="31" y="658"/>
      <point x="55" y="658" type="curve" smooth="yes"/>
      <point x="69" y="658"/>
      <point x="80" y="651"/>
      <point x="102" y="633" type="curve" smooth="yes"/>
      <point x="126" y="613"/>
      <point x="151" y="594"/>
    </contour>
  </outline>
</glyph>
<glyph name="Imacron" format="2">
  <advance width="316"/>
  <unicode hex="012A"/>
  <outline>
    <contour>
      <point x="53" y="50" type="line"/>
      <point x="53" y="0" type="line"/>
      <point x="263" y="0" type="line"/>
      <point x="263" y="50" type="line"/>
      <point x="188" y="50" type="line"/>
      <point x="188" y="700" type="line"/>
      <point x="263" y="700" type="line"/>
      <point x="263" y="750" type="line"/>
      <point x="53" y="750" type="line"/>
      <point x="53" y="700" type="line"/>
      <point x="128" y="700" type="line"/>
      <point x="128" y="50" type="line"/>
    </contour>
    <contour>
      <point x="21" y="860" type="line"/>
      <point x="296" y="860" type="line"/>
      <point x="296" y="906" type="line"/>
      <point x="21" y="906" type="line"/>
    </contour>
  </outline>
</glyph>
<glyph name="imacron" format="2">
  <advance width="297"/>
  <unicode hex="012B"/>
  <outline>
    <contour>
      <point x="48" y="604" type="line"/>
      <point x="248" y="604" type="line"/>
      <point x="248" y="650" type="line"/>
      <point x="48" y="650" type="line"/>
    </contour>
    <contour>
      <point x="48" y="477" type="line"/>
      <point x="48" y="425" type="line"/>
      <point x="125" y="425" type="line"/>
      <point x="125" y="50" type="line"/>
      <point x="48" y="50" type="line"/>
      <point x="48" y="0" type="line"/>
      <point x="262" y="0" type="line"/>
      <point x="262" y="50" type="line"/>
      <point x="185" y="50" type="line"/>
      <point x="185" y="477" type="line"/>
      <point x="160" y="477"/>
      <point x="123" y="477"/>
      <point x="123" y="477" type="curve"/>
    </contour>
    <contour>
      <point x="182" y="425" type="line"/>
      <point x="184" y="477" type="line"/>
    </contour>
  </outline>
</glyph>
<glyph name="Ibreve" format="2">
  <advance width="316"/>
  <unicode hex="012C"/>
  <outline>
    <contour>
      <point x="53" y="50" type="line"/>
      <point x="53" y="0" type="line"/>
      <point x="263" y="0" type="line"/>
      <point x="263" y="50" type="line"/>
      <point x="188" y="50" type="line"/>
      <point x="188" y="700" type="line"/>
      <point x="263" y="700" type="line"/>
      <point x="263" y="750" type="line"/>
      <point x="53" y="750" type="line"/>
      <point x="53" y="700" type="line"/>
      <point x="128" y="700" type="line"/>
      <point x="128" y="50" type="line"/>
    </contour>
    <contour>
      <point x="153" y="903" type="line" smooth="yes"/>
      <point x="103" y="904"/>
      <point x="68" y="926"/>
      <point x="60" y="969" type="curve"/>
      <point x="19" y="963" type="line"/>
      <point x="30" y="896"/>
      <point x="69" y="861"/>
      <point x="153" y="860" type="curve" smooth="yes"/>
      <point x="162" y="860" type="line" smooth="yes"/>
      <point x="245" y="861"/>
      <point x="285" y="896"/>
      <point x="296" y="963" type="curve"/>
      <point x="255" y="969" type="line"/>
      <point x="247" y="926"/>
      <point x="212" y="904"/>
      <point x="162" y="903" type="curve"/>
    </contour>
  </outline>
</glyph>
<glyph name="ibreve" format="2">
  <advance width="297"/>
  <unicode hex="012D"/>
  <outline>
    <contour>
      <point x="48" y="477" type="line"/>
      <point x="48" y="425" type="line"/>
      <point x="125" y="425" type="line"/>
      <point x="125" y="50" type="line"/>
      <point x="48" y="50" type="line"/>
      <point x="48" y="0" type="line"/>
      <point x="262" y="0" type="line"/>
      <point x="262" y="50" type="line"/>
      <point x="185" y="50" type="line"/>
      <point x="185" y="477" type="line"/>
      <point x="160" y="477"/>
      <point x="123" y="477"/>
      <point x="123" y="477" type="curve"/>
    </contour>
    <contour>
      <point x="182" y="425" type="line"/>
      <point x="184" y="477" type="line"/>
    </contour>
    <contour>
      <point x="133" y="618" type="line" smooth="yes"/>
      <point x="83" y="619"/>
      <point x="48" y="641"/>
      <point x="40" y="684" type="curve"/>
      <point x="-1" y="678" type="line"/>
      <point x="10" y="611"/>
      <point x="49" y="576"/>
      <point x="133" y="575" type="curve" smooth="yes"/>
      <point x="142" y="575" type="line" smooth="yes"/>
      <point x="225" y="576"/>
      <point x="265" y="611"/>
      <point x="276" y="678" type="curve"/>
      <point x="235" y="684" type="line"/>
      <point x="227" y="641"/>
      <point x="192" y="619"/>
      <point x="142" y="618" type="curve"/>
    </contour>
  </outline>
</glyph>
<glyph name="Iogonek" format="2">
  <advance width="316"/>
  <unicode hex="012E"/>
  <outline>
    <contour>
      <point x="53" y="50" type="line"/>
      <point x="53" y="0" type="line"/>
      <point x="263" y="0" type="line"/>
      <point x="263" y="50" type="line"/>
      <point x="188" y="50" type="line"/>
      <point x="188" y="700" type="line"/>
      <point x="263" y="700" type="line"/>
      <point x="263" y="750" type="line"/>
      <point x="53" y="750" type="line"/>
      <point x="53" y="700" type="line"/>
      <point x="128" y="700" type="line"/>
      <point x="128" y="50" type="line"/>
    </contour>
    <contour>
      <point x="184" y="-192" type="curve" smooth="yes"/>
      <point x="219" y="-183"/>
      <point x="261" y="-148"/>
      <point x="272" y="-134" type="curve"/>
      <point x="248" y="-106" type="line"/>
      <point x="231" y="-123"/>
      <point x="207" y="-143"/>
      <point x="176" y="-151" type="curve" smooth="yes"/>
      <point x="139" y="-160"/>
      <point x="113" y="-144"/>
      <point x="104" y="-114" type="curve" smooth="yes"/>
      <point x="89" y="-64"/>
      <point x="143" y="-2"/>
      <point x="210" y="36" type="curve"/>
      <point x="150" y="36" type="line"/>
      <point x="89" y="-3"/>
      <point x="44" y="-72"/>
      <point x="62" y="-135" type="curve" smooth="yes"/>
      <point x="77" y="-187"/>
      <point x="119" y="-211"/>
    </contour>
  </outline>
</glyph>
<glyph name="Idotaccent" format="2">
  <advance width="316"/>
  <unicode hex="0130"/>
  <outline>
    <contour>
      <point x="53" y="50" type="line"/>
      <point x="53" y="0" type="line"/>
      <point x="263" y="0" type="line"/>
      <point x="263" y="50" type="line"/>
      <point x="188" y="50" type="line"/>
      <point x="188" y="700" type="line"/>
      <point x="263" y="700" type="line"/>
      <point x="263" y="750" type="line"/>
      <point x="53" y="750" type="line"/>
      <point x="53" y="700" type="line"/>
      <point x="128" y="700" type="line"/>
      <point x="128" y="50" type="line"/>
    </contour>
    <contour>
      <point x="159" y="860" type="curve" smooth="yes"/>
      <point x="188" y="860"/>
      <point x="210" y="884"/>
      <point x="210" y="913" type="curve" smooth="yes"/>
      <point x="210" y="942"/>
      <point x="188" y="966"/>
      <point x="159" y="966" type="curve" smooth="yes"/>
      <point x="130" y="966"/>
      <point x="108" y="942"/>
      <point x="108" y="913" type="curve" smooth="yes"/>
      <point x="108" y="884"/>
      <point x="130" y="860"/>
    </contour>
  </outline>
</glyph>
<glyph name="lacute" format="2">
  <advance width="284"/>
  <unicode hex="013A"/>
  <outline>
    <contour>
      <point x="38" y="750" type="line"/>
      <point x="38" y="700" type="line"/>
      <point x="113" y="700" type="line"/>
      <point x="113" y="50" type="line"/>
      <point x="36" y="50" type="line"/>
      <point x="36" y="0" type="line"/>
      <point x="249" y="0" type="line"/>
      <point x="249" y="50" type="line"/>
      <point x="172" y="50" type="line"/>
      <point x="172" y="750" type="line"/>
    </contour>
    <contour>
      <point x="99" y="860" type="line"/>
      <point x="237" y="999" type="line"/>
      <point x="160" y="999" type="line"/>
      <point x="49" y="860" type="line"/>
    </contour>
  </outline>
</glyph>
<glyph name="Lslash" format="2">
  <advance width="578"/>
  <unicode hex="0141"/>
  <outline>
    <contour>
      <point x="395" y="469" type="line"/>
      <point x="367" y="515" type="line"/>
      <point x="3" y="299" type="line"/>
      <point x="32" y="251" type="line"/>
    </contour>
    <contour>
      <point x="39" y="50" type="line"/>
      <point x="39" y="0" type="line"/>
      <point x="509" y="0" type="line"/>
      <point x="509" y="152" type="line"/>
      <point x="459" y="152" type="line"/>
      <point x="459" y="51" type="line"/>
      <point x="174" y="51" type="line"/>
      <point x="174" y="700" type="line"/>
      <point x="249" y="700" type="line"/>
      <point x="249" y="750" type="line"/>
      <point x="39" y="750" type="line"/>
      <point x="39" y="700" type="line"/>
      <point x="114" y="700" type="line"/>
      <point x="114" y="50" type="line"/>
    </contour>
  </outline>
</glyph>
<glyph name="lslash" format="2">
  <advance width="284"/>
  <unicode hex="0142"/>
  <outline>
    <contour>
      <point x="274" y="470" type="line"/>
      <point x="250" y="509" type="line"/>
      <point x="-1" y="360" type="line"/>
      <point x="22" y="320" type="line"/>
    </contour>
    <contour>
      <point x="38" y="750" type="line"/>
      <point x="38" y="700" type="line"/>
      <point x="113" y="700" type="line"/>
      <point x="113" y="50" type="line"/>
      <point x="36" y="50" type="line"/>
      <point x="36" y="0" type="line"/>
      <point x="249" y="0" type="line"/>
      <point x="249" y="50" type="line"/>
      <point x="172" y="50" type="line"/>
      <point x="172" y="750" type="line"/>
    </contour>
  </outline>
</glyph>
<glyph name="ncaron" format="2">
  <advance width="607"/>
  <unicode hex="0148"/>
  <outline>
    <contour>
      <point x="46" y="475" type="line"/>
      <point x="46" y="426" type="line"/>
      <point x="119" y="426" type="line"/>
      <point x="119" y="50" type="line"/>
      <point x="45" y="50" type="line"/>
      <point x="45" y="0" type="line"/>
      <point x="256" y="0" type="line"/>
      <point x="256" y="50" type="line"/>
      <point x="179" y="50" type="line"/>
      <point x="179" y="296" type="line"/>
      <point x="179" y="296"/>
      <point x="247" y="456"/>
      <point x="379" y="420" type="curve" smooth="yes"/>
      <point x="413" y="411"/>
      <point x="445" y="366"/>
      <point x="446" y="317" type="curve" smooth="yes"/>
      <point x="446" y="50" type="line"/>
      <point x="369" y="50" type="line"/>
      <point x="369" y="0" type="line"/>
      <point x="577" y="0" type="line"/>
      <point x="577" y="50" type="line"/>
      <point x="506" y="50" type="line"/>
      <point x="506" y="318" type="line" smooth="yes"/>
      <point x="506" y="398"/>
      <point x="456" y="477"/>
      <point x="333" y="477" type="curve" smooth="yes"/>
      <point x="221" y="477"/>
      <point x="177" y="378"/>
      <point x="177" y="378" type="curve"/>
      <point x="177" y="475" type="line"/>
    </contour>
    <contour>
      <point x="310" y="612" type="line"/>
      <point x="228" y="714" type="line"/>
      <point x="164" y="714" type="line"/>
      <point x="286" y="575" type="line"/>
      <point x="334" y="575" type="line"/>
      <point x="457" y="714" type="line"/>
      <point x="392" y="714" type="line"/>
    </contour>
  </outline>
</glyph>
<glyph name="obreve" format="2">
  <advance width="584"/>
  <unicode hex="014F"/>
  <outline>
    <contour>
      <point x="292" y="-6" type="curve" smooth="yes"/>
      <point x="432" y="-6"/>
      <point x="536" y="102"/>
      <point x="536" y="239" type="curve" smooth="yes"/>
      <point x="536" y="374"/>
      <point x="432" y="481"/>
      <point x="292" y="481" type="curve" smooth="yes"/>
      <point x="152" y="481"/>
      <point x="48" y="374"/>
      <point x="48" y="239" type="curve" smooth="yes"/>
      <point x="48" y="102"/>
      <point x="152" y="-6"/>
    </contour>
    <contour>
      <point x="292" y="46" type="curve" smooth="yes"/>
      <point x="188" y="46"/>
      <point x="107" y="125"/>
      <point x="107" y="239" type="curve" smooth="yes"/>
      <point x="107" y="350"/>
      <point x="188" y="429"/>
      <point x="292" y="429" type="curve" smooth="yes"/>
      <point x="395" y="429"/>
      <point x="477" y="350"/>
      <point x="477" y="239" type="curve" smooth="yes"/>
      <point x="477" y="125"/>
      <point x="395" y="46"/>
    </contour>
    <contour>
      <point x="287" y="618" type="line" smooth="yes"/>
      <point x="237" y="619"/>
      <point x="202" y="641"/>
      <point x="194" y="684" type="curve"/>
      <point x="153" y="678" type="line"/>
      <point x="164" y="611"/>
      <point x="203" y="576"/>
      <point x="287" y="575" type="curve" smooth="yes"/>
      <point x="296" y="575" type="line" smooth="yes"/>
      <point x="379" y="576"/>
      <point x="419" y="611"/>
      <point x="430" y="678" type="curve"/>
      <point x="389" y="684" type="line"/>
      <point x="381" y="641"/>
      <point x="346" y="619"/>
      <point x="296" y="618" type="curve"/>
    </contour>
  </outline>
</glyph>
<glyph name="ohungarumlaut" format="2">
  <advance width="584"/>
  <unicode hex="0151"/>
  <outline>
    <contour>
      <point x="292" y="-6" type="curve" smooth="yes"/>
      <point x="432" y="-6"/>
      <point x="536" y="102"/>
      <point x="536" y="239" type="curve" smooth="yes"/>
      <point x="536" y="374"/>
      <point x="432" y="481"/>
      <point x="292" y="481" type="curve" smooth="yes"/>
      <point x="152" y="481"/>
      <point x="48" y="374"/>
      <point x="48" y="239" type="curve" smooth="yes"/>
      <point x="48" y="102"/>
      <point x="152" y="-6"/>
    </contour>
    <contour>
      <point x="292" y="46" type="curve" smooth="yes"/>
      <point x="188" y="46"/>
      <point x="107" y="125"/>
      <point x="107" y="239" type="curve" smooth="yes"/>
      <point x="107" y="350"/>
      <point x="188" y="429"/>
      <point x="292" y="429" type="curve" smooth="yes"/>
      <point x="395" y="429"/>
      <point x="477" y="350"/>
      <point x="477" y="239" type="curve" smooth="yes"/>
      <point x="477" y="125"/>
      <point x="395" y="46"/>
    </contour>
    <contour>
      <point x="341" y="750" type="line"/>
      <point x="264" y="750" type="line"/>
      <point x="168" y="611" type="line"/>
      <point x="218" y="611" type="line"/>
    </contour>
    <contour>
      <point x="495" y="750" type="line"/>
      <point x="418" y="750" type="line"/>
      <point x="307" y="611" type="line"/>
      <point x="357" y="611" type="line"/>
    </contour>
  </outline>
</glyph>
<glyph name="OE" format="2">
  <advance width="943"/>
  <unicode hex="0152"/>
  <outline>
    <contour>
      <point x="428" y="0" type="curve" smooth="yes"/>
      <point x="554" y="0" type="line"/>
      <point x="554" y="750" type="line"/>
      <point x="426" y="750" type="line" smooth="yes"/>
      <point x="182" y="750"/>
      <point x="20" y="592"/>
      <point x="20" y="367" type="curve" smooth="yes"/>
      <point x="20" y="146"/>
      <point x="193" y="0"/>
    </contour>
    <contour>
      <point x="429" y="57" type="line" smooth="yes"/>
      <point x="228" y="57"/>
      <point x="86" y="178"/>
      <point x="86" y="365" type="curve" smooth="yes"/>
      <point x="86" y="557"/>
      <point x="204" y="693"/>
      <point x="420" y="693" type="curve" smooth="yes"/>
      <point x="496" y="693" type="line"/>
      <point x="496" y="57" type="line"/>
    </contour>
    <contour>
      <point x="557" y="427" type="line"/>
      <point x="557" y="700" type="line"/>
      <point x="873" y="700" type="line"/>
      <point x="873" y="585" type="line"/>
      <point x="923" y="585" type="line"/>
      <point x="923" y="750" type="line"/>
      <point x="421" y="750" type="line"/>
      <point x="421" y="700" type="line"/>
      <point x="496" y="700" type="line"/>
      <point x="496" y="50" type="line"/>
      <point x="421" y="50" type="line"/>
      <point x="421" y="0" type="line"/>
      <point x="923" y="0" type="line"/>
      <point x="923" y="166" type="line"/>
      <point x="873" y="166" type="line"/>
      <point x="873" y="50" type="line"/>
      <point x="557" y="50" type="line"/>
      <point x="557" y="375" type="line"/>
      <point x="822" y="375" type="line"/>
      <point x="822" y="427" type="line"/>
    </contour>
  </outline>
</glyph>
<glyph name="Sacute" format="2">
  <advance width="658"/>
  <unicode hex="015A"/>
  <outline>
    <contour>
      <point x="64" y="-1" type="line"/>
      <point x="112" y="-1" type="line"/>
      <point x="112" y="130" type="line"/>
      <point x="112" y="128"/>
      <point x="113" y="127"/>
      <point x="113" y="125" type="curve"/>
      <point x="129" y="48"/>
      <point x="249" y="-16"/>
      <point x="353" y="-17" type="curve" smooth="yes"/>
      <point x="457" y="-18"/>
      <point x="594" y="40"/>
      <point x="594" y="191" type="curve" smooth="yes"/>
      <point x="594" y="270"/>
      <point x="545" y="347"/>
      <point x="323" y="408" type="curve"/>
      <point x="178" y="462"/>
      <point x="126" y="475"/>
      <point x="119" y="563" type="curve"/>
      <point x="119" y="687"/>
      <point x="210" y="716"/>
      <point x="299" y="713" type="curve" smooth="yes"/>
      <point x="387" y="710"/>
      <point x="478" y="657"/>
      <point x="502" y="555" type="curve"/>
      <point x="502" y="553" type="line"/>
      <point x="503" y="553" type="line"/>
      <point x="503" y="551" type="line"/>
      <point x="503" y="551"/>
      <point x="503" y="552"/>
      <point x="504" y="553" type="curve"/>
      <point x="550" y="553" type="line"/>
      <point x="550" y="748" type="line"/>
      <point x="502" y="748" type="line"/>
      <point x="502" y="663" type="line"/>
      <point x="501" y="664" type="line"/>
      <point x="463" y="717"/>
      <point x="400" y="760"/>
      <point x="296" y="761" type="curve" smooth="yes"/>
      <point x="192" y="762"/>
      <point x="62" y="719"/>
      <point x="62" y="568" type="curve" smooth="yes"/>
      <point x="62" y="464"/>
      <point x="114" y="405"/>
      <point x="295" y="362" type="curve"/>
      <point x="487" y="300"/>
      <point x="537" y="254"/>
      <point x="537" y="196" type="curve" smooth="yes"/>
      <point x="537" y="72"/>
      <point x="439" y="32"/>
      <point x="350" y="35" type="curve" smooth="yes"/>
      <point x="262" y="38"/>
      <point x="150" y="72"/>
      <point x="112" y="234" type="curve"/>
      <point x="112" y="244" type="line"/>
      <point x="64" y="244" type="line"/>
    </contour>
    <contour>
      <point x="284" y="860" type="line"/>
      <point x="422" y="999" type="line"/>
      <point x="345" y="999" type="line"/>
      <point x="234" y="860" type="line"/>
    </contour>
  </outline>
</glyph>
<glyph name="scaron" format="2">
  <advance width="446"/>
  <unicode hex="0161"/>
  <outline>
    <contour>
      <point x="47" y="0" type="line"/>
      <point x="93" y="0" type="line"/>
      <point x="93" y="55" type="line"/>
      <point x="115" y="19"/>
      <point x="178" y="-10"/>
      <point x="249" y="-10" type="curve" smooth="yes"/>
      <point x="312" y="-11"/>
      <point x="402" y="26"/>
      <point x="402" y="133" type="curve" smooth="yes"/>
      <point x="402" y="214"/>
      <point x="324" y="245"/>
      <point x="233" y="269" type="curve" smooth="yes"/>
      <point x="144" y="295"/>
      <point x="105" y="310"/>
      <point x="102" y="364" type="curve"/>
      <point x="102" y="436"/>
      <point x="146" y="449"/>
      <point x="200" y="450" type="curve" smooth="yes"/>
      <point x="256" y="450"/>
      <point x="314" y="415"/>
      <point x="330" y="351" type="curve"/>
      <point x="375" y="351" type="line"/>
      <point x="375" y="487" type="line"/>
      <point x="329" y="487" type="line"/>
      <point x="329" y="448" type="line"/>
      <point x="307" y="474"/>
      <point x="268" y="496"/>
      <point x="196" y="496" type="curve" smooth="yes"/>
      <point x="133" y="497"/>
      <point x="47" y="469"/>
      <point x="47" y="362" type="curve" smooth="yes"/>
      <point x="47" y="291"/>
      <point x="99" y="257"/>
      <point x="204" y="226" type="curve" smooth="yes"/>
      <point x="312" y="194"/>
      <point x="342" y="180"/>
      <point x="346" y="129" type="curve"/>
      <point x="346" y="61"/>
      <point x="297" y="39"/>
      <point x="244" y="38" type="curve"/>
      <point x="188" y="40"/>
      <point x="93" y="60"/>
      <point x="93" y="167" type="curve" smooth="yes"/>
      <point x="93" y="168" type="line"/>
      <point x="47" y="168" type="line"/>
    </contour>
    <contour>
      <point x="224" y="612" type="line"/>
      <point x="142" y="714" type="line"/>
      <point x="78" y="714" type="line"/>
      <point x="200" y="575" type="line"/>
      <point x="248" y="575" type="line"/>
      <point x="371" y="714" type="line"/>
      <point x="306" y="714" type="line"/>
    </contour>
  </outline>
</glyph>
<glyph name="Uring" format="2">
  <advance width="742"/>
  <unicode hex="016E"/>
  <outline>
    <contour>
      <point x="371" y="0" type="line"/>
      <point x="620" y="0"/>
      <point x="628" y="198"/>
      <point x="627" y="214" type="curve"/>
      <point x="627" y="699" type="line"/>
      <point x="706" y="699" type="line"/>
      <point x="706" y="750" type="line"/>
      <point x="484" y="750" type="line"/>
      <point x="484" y="700" type="line"/>
      <point x="567" y="700" type="line"/>
      <point x="567" y="212" type="line" smooth="yes"/>
      <point x="567" y="108"/>
      <point x="470" y="47"/>
      <point x="371" y="47" type="curve"/>
    </contour>
    <contour>
      <point x="371" y="47" type="curve"/>
      <point x="229" y="47"/>
      <point x="353" y="47"/>
    </contour>
    <contour>
      <point x="371" y="0" type="curve"/>
      <point x="371" y="47" type="line"/>
      <point x="272" y="47"/>
      <point x="175" y="108"/>
      <point x="175" y="212" type="curve" smooth="yes"/>
      <point x="175" y="700" type="line"/>
      <point x="258" y="700" type="line"/>
      <point x="258" y="750" type="line"/>
      <point x="36" y="750" type="line"/>
      <point x="36" y="699" type="line"/>
      <point x="115" y="699" type="line"/>
      <point x="115" y="214" type="line"/>
      <point x="114" y="198"/>
      <point x="122" y="0"/>
    </contour>
    <contour>
      <point x="371" y="47" type="curve"/>
      <point x="389" y="47"/>
      <point x="513" y="47"/>
    </contour>
    <contour>
      <point x="371" y="855" type="curve" smooth="yes"/>
      <point x="416" y="855"/>
      <point x="456" y="895"/>
      <point x="456" y="941" type="curve" smooth="yes"/>
      <point x="456" y="987"/>
      <point x="416" y="1026"/>
      <point x="371" y="1026" type="curve" smooth="yes"/>
      <point x="324" y="1026"/>
      <point x="285" y="987"/>
      <point x="285" y="941" type="curve" smooth="yes"/>
      <point x="285" y="895"/>
      <point x="324" y="855"/>
    </contour>
    <contour>
      <point x="371" y="886" type="curve" smooth="yes"/>
      <point x="339" y="886"/>
      <point x="316" y="910"/>
      <point x="316" y="941" type="curve" smooth="yes"/>
      <point x="316" y="971"/>
      <point x="339" y="995"/>
      <point x="371" y="995" type="curve" smooth="yes"/>
      <point x="400" y="995"/>
      <point x="425" y="971"/>
      <point x="425" y="941" type="curve" smooth="yes"/>
      <point x="425" y="910"/>
      <point x="400" y="886"/>
    </contour>
  </outline>
</glyph>
<glyph name="uogonek" format="2">
  <advance width="594"/>
  <unicode hex="0173"/>
  <outline>
    <contour>
      <point x="561" y="0" type="line"/>
      <point x="561" y="49" type="line"/>
      <point x="488" y="49" type="line"/>
      <point x="488" y="425" type="line"/>
      <point x="488" y="475" type="line"/>
      <point x="351" y="475" type="line"/>
      <point x="351" y="425" type="line"/>
      <point x="428" y="425" type="line"/>
      <point x="428" y="174" type="line"/>
      <point x="428" y="174"/>
      <point x="360" y="19"/>
      <point x="228" y="55" type="curve" smooth="yes"/>
      <point x="194" y="64"/>
      <point x="162" y="94"/>
      <point x="161" y="143" type="curve" smooth="yes"/>
      <point x="161" y="425" type="line"/>
      <point x="161" y="475" type="line"/>
      <point x="30" y="475" type="line"/>
      <point x="30" y="425" type="line"/>
      <point x="101" y="425" type="line"/>
      <point x="101" y="125" type="line" smooth="yes"/>
      <point x="101" y="76"/>
      <point x="151" y="-2"/>
      <point x="274" y="-2" type="curve" smooth="yes"/>
      <point x="386" y="-2"/>
      <point x="430" y="92"/>
      <point x="430" y="92" type="curve"/>
      <point x="430" y="0" type="line"/>
    </contour>
    <contour>
      <point x="498" y="-194" type="curve" smooth="yes"/>
      <point x="533" y="-185"/>
      <point x="575" y="-150"/>
      <point x="586" y="-136" type="curve"/>
      <point x="562" y="-108" type="line"/>
      <point x="545" y="-125"/>
      <point x="521" y="-145"/>
      <point x="490" y="-153" type="curve" smooth="yes"/>
      <point x="453" y="-162"/>
      <point x="427" y="-146"/>
      <point x="418" y="-116" type="curve" smooth="yes"/>
      <point x="403" y="-66"/>
      <point x="457" y="-4"/>
      <point x="524" y="34" type="curve"/>
      <point x="464" y="34" type="line"/>
      <point x="403" y="-5"/>
      <point x="358" y="-74"/>
      <point x="376" y="-137" type="curve" smooth="yes"/>
      <point x="391" y="-189"/>
      <point x="433" y="-213"/>
    </contour>
  </outline>
</glyph>
<glyph name="Ydieresis" format="2">
  <advance width="728"/>
  <unicode hex="0178"/>
  <outline>
    <contour>
      <point x="21" y="750" type="line"/>
      <point x="21" y="700" type="line"/>
      <point x="107" y="700" type="line"/>
      <point x="329" y="326" type="line"/>
      <point x="329" y="50" type="line"/>
      <point x="243" y="50" type="line"/>
      <point x="243" y="0" type="line"/>
      <point x="476" y="0" type="line"/>
      <point x="476" y="50" type="line"/>
      <point x="390" y="50" type="line"/>
      <point x="390" y="326" type="line"/>
      <point x="621" y="700" type="line"/>
      <point x="707" y="700" type="line"/>
      <point x="707" y="750" type="line"/>
      <point x="474" y="750" type="line"/>
      <point x="474" y="700" type="line"/>
      <point x="559" y="700" type="line"/>
      <point x="361" y="380" type="line"/>
      <point x="358" y="380" type="line"/>
      <point x="169" y="700" type="line"/>
      <point x="254" y="700" type="line"/>
      <point x="254" y="750" type="line"/>
    </contour>
    <contour>
      <point x="242" y="878" type="line"/>
      <point x="307" y="878" type="line"/>
      <point x="307" y="943" type="line"/>
      <point x="242" y="943" type="line"/>
    </contour>
    <contour>
      <point x="421" y="878" type="line"/>
      <point x="486" y="878" type="line"/>
      <point x="486" y="943" type="line"/>
      <point x="421" y="943" type="line"/>
    </contour>
    <contour>
      <point x="455" y="860" type="curve" smooth="yes"/>
      <point x="483" y="860"/>
      <point x="504" y="883"/>
      <point x="504" y="911" type="curve" smooth="yes"/>
      <point x="504" y="939"/>
      <point x="483" y="962"/>
      <point x="455" y="962" type="curve" smooth="yes"/>
      <point x="427" y="962"/>
      <point x="406" y="939"/>
      <point x="406" y="911" type="curve" smooth="yes"/>
      <point x="406" y="883"/>
      <point x="427" y="860"/>
    </contour>
    <contour>
      <point x="275" y="860" type="curve" smooth="yes"/>
      <point x="303" y="860"/>
      <point x="324" y="883"/>
      <point x="324" y="911" type="curve" smooth="yes"/>
      <point x="324" y="939"/>
      <point x="303" y="962"/>
      <point x="275" y="962" type="curve" smooth="yes"/>
      <point x="247" y="962"/>
      <point x="226" y="939"/>
      <point x="226" y="911" type="curve" smooth="yes"/>
      <point x="226" y="883"/>
      <point x="247" y="860"/>
    </contour>
  </outline>
</glyph>
<glyph name="zdotaccent" format="2">
  <advance width="481"/>
  <unicode hex="017C"/>
  <outline>
    <contour>
      <point x="437" y="420" type="line"/>
      <point x="115" y="55" type="line"/>
      <point x="390" y="55" type="line"/>
      <point x="390" y="136" type="line"/>
      <point x="442" y="136" type="line"/>
      <point x="442" y="0" type="line"/>
      <point x="40" y="0" type="line"/>
      <point x="40" y="54" type="line"/>
      <point x="356" y="420" type="line"/>
      <point x="100" y="420" type="line"/>
      <point x="100" y="344" type="line"/>
      <point x="47" y="344" type="line"/>
      <point x="47" y="475" type="line"/>
      <point x="437" y="475" type="line"/>
    </contour>
  </outline>
</glyph>
<glyph name="Zcaron" format="2">
  <advance width="599"/>
  <unicode hex="017D"/>
  <outline>
    <contour>
      <point x="102" y="700" type="line"/>
      <point x="102" y="557" type="line"/>
      <point x="46" y="557" type="line"/>
      <point x="46" y="750" type="line"/>
      <point x="554" y="750" type="line"/>
      <point x="554" y="700" type="line"/>
      <point x="113" y="50" type="line"/>
      <point x="493" y="50" type="line"/>
      <point x="493" y="199" type="line"/>
      <point x="549" y="199" type="line"/>
      <point x="549" y="0" type="line"/>
      <point x="45" y="0" type="line"/>
      <point x="45" y="50" type="line"/>
      <point x="485" y="700" type="line"/>
    </contour>
    <contour>
      <point x="299" y="897" type="line"/>
      <point x="217" y="999" type="line"/>
      <point x="153" y="999" type="line"/>
      <point x="275" y="860" type="line"/>
      <point x="323" y="860" type="line"/>
      <point x="446" y="999" type="line"/>
      <point x="381" y="999" type="line"/>
    </contour>
  </outline>
</glyph>
<glyph name="Aringacute" format="2">
  <advance width="769"/>
  <unicode hex="01FA"/>
  <outline>
    <contour>
      <point x="254" y="0" type="line"/>
      <point x="254" y="50" type="line"/>
      <point x="174" y="50" type="line"/>
      <point x="238" y="237" type="line"/>
      <point x="529" y="237" type="line"/>
      <point x="593" y="50" type="line"/>
      <point x="513" y="50" type="line"/>
      <point x="513" y="0" type="line"/>
      <point x="749" y="0" type="line"/>
      <point x="749" y="50" type="line"/>
      <point x="661" y="50" type="line"/>
      <point x="443" y="702" type="line"/>
      <point x="508" y="702" type="line"/>
      <point x="508" y="750" type="line"/>
      <point x="262" y="750" type="line"/>
      <point x="262" y="702" type="line"/>
      <point x="327" y="702" type="line"/>
      <point x="108" y="50" type="line"/>
      <point x="20" y="50" type="line"/>
      <point x="20" y="0" type="line"/>
    </contour>
    <contour>
      <point x="255" y="285" type="line"/>
      <point x="383" y="698" type="line"/>
      <point x="385" y="698" type="line"/>
      <point x="512" y="285" type="line"/>
    </contour>
    <contour>
      <point x="381" y="855" type="curve" smooth="yes"/>
      <point x="426" y="855"/>
      <point x="466" y="895"/>
      <point x="466" y="941" type="curve" smooth="yes"/>
      <point x="466" y="987"/>
      <point x="426" y="1026"/>
      <point x="381" y="1026" type="curve" smooth="yes"/>
      <point x="334" y="1026"/>
      <point x="295" y="987"/>
      <point x="295" y="941" type="curve" smooth="yes"/>
      <point x="295" y="895"/>
      <point x="334" y="855"/>
    </contour>
    <contour>
      <point x="381" y="886" type="curve" smooth="yes"/>
      <point x="349" y="886"/>
      <point x="326" y="910"/>
      <point x="326" y="941" type="curve" smooth="yes"/>
      <point x="326" y="971"/>
      <point x="349" y="995"/>
      <point x="381" y="995" type="curve" smooth="yes"/>
      <point x="410" y="995"/>
      <point x="435" y="971"/>
      <point x="435" y="941" type="curve" smooth="yes"/>
      <point x="435" y="910"/>
      <point x="410" y="886"/>
    </contour>
    <contour>
      <point x="340" y="1070" type="line"/>
      <point x="478" y="1209" type="line"/>
      <point x="401" y="1209" type="line"/>
      <point x="290" y="1070" type="line"/>
    </contour>
  </outline>
</glyph>
<glyph name="aringacute" format="2">
  <advance width="642"/>
  <unicode hex="01FB"/>
  <outline>
    <contour>
      <point x="610" y="472" type="line"/>
      <point x="487" y="472" type="line"/>
      <point x="486" y="374" type="line"/>
      <point x="479" y="384"/>
      <point x="471" y="394"/>
      <point x="463" y="404" type="curve"/>
      <point x="422" y="450"/>
      <point x="367" y="473"/>
      <point x="296" y="473" type="curve" smooth="yes"/>
      <point x="225" y="473"/>
      <point x="166" y="450"/>
      <point x="119" y="403" type="curve" smooth="yes"/>
      <point x="72" y="357"/>
      <point x="49" y="301"/>
      <point x="49" y="234" type="curve" smooth="yes"/>
      <point x="48" y="167"/>
      <point x="71" y="111"/>
      <point x="118" y="67" type="curve" smooth="yes"/>
      <point x="165" y="22"/>
      <point x="224" y="0"/>
      <point x="296" y="0" type="curve" smooth="yes"/>
      <point x="367" y="0"/>
      <point x="422" y="22"/>
      <point x="463" y="67" type="curve" smooth="yes"/>
      <point x="471" y="76"/>
      <point x="478" y="85"/>
      <point x="484" y="95" type="curve"/>
      <point x="485" y="0" type="line"/>
      <point x="610" y="0" type="line"/>
      <point x="610" y="50" type="line"/>
      <point x="544" y="50" type="line"/>
      <point x="544" y="425" type="line"/>
      <point x="609" y="425" type="line"/>
    </contour>
    <contour>
      <point x="484" y="236" type="curve" smooth="yes"/>
      <point x="484" y="235" type="line" smooth="yes"/>
      <point x="484" y="120"/>
      <point x="409" y="54"/>
      <point x="298" y="54" type="curve" smooth="yes"/>
      <point x="241" y="54"/>
      <point x="196" y="70"/>
      <point x="161" y="101" type="curve" smooth="yes"/>
      <point x="126" y="133"/>
      <point x="109" y="177"/>
      <point x="109" y="234" type="curve" smooth="yes"/>
      <point x="109" y="291"/>
      <point x="126" y="336"/>
      <point x="160" y="369" type="curve" smooth="yes"/>
      <point x="195" y="402"/>
      <point x="240" y="418"/>
      <point x="296" y="418" type="curve" smooth="yes"/>
      <point x="410" y="418"/>
      <point x="484" y="350"/>
    </contour>
    <contour>
      <point x="484" y="95" type="line"/>
      <point x="486" y="374" type="line"/>
    </contour>
    <contour>
      <point x="328" y="540" type="curve" smooth="yes"/>
      <point x="373" y="540"/>
      <point x="413" y="580"/>
      <point x="413" y="626" type="curve" smooth="yes"/>
      <point x="413" y="672"/>
      <point x="373" y="711"/>
      <point x="328" y="711" type="curve" smooth="yes"/>
      <point x="281" y="711"/>
      <point x="242" y="672"/>
      <point x="242" y="626" type="curve" smooth="yes"/>
      <point x="242" y="580"/>
      <point x="281" y="540"/>
    </contour>
    <contour>
      <point x="328" y="571" type="curve" smooth="yes"/>
      <point x="296" y="571"/>
      <point x="273" y="595"/>
      <point x="273" y="626" type="curve" smooth="yes"/>
      <point x="273" y="656"/>
      <point x="296" y="680"/>
      <point x="328" y="680" type="curve" smooth="yes"/>
      <point x="357" y="680"/>
      <point x="382" y="656"/>
      <point x="382" y="626" type="curve" smooth="yes"/>
      <point x="382" y="595"/>
      <point x="357" y="571"/>
    </contour>
    <contour>
      <point x="286" y="816" type="line"/>
      <point x="424" y="955" type="line"/>
      <point x="347" y="955" type="line"/>
      <point x="236" y="816" type="line"/>
    </contour>
  </outline>
</glyph>
<glyph name="aeacute" format="2">
  <advance width="833"/>
  <unicode hex="01FD"/>
  <outline>
    <contour>
      <point x="570" y="1" type="curve" smooth="yes"/>
      <point x="483" y="1"/>
      <point x="424" y="50"/>
      <point x="404" y="102" type="curve"/>
      <point x="399" y="102" type="line"/>
      <point x="375" y="51"/>
      <point x="313" y="1"/>
      <point x="234" y="1" type="curve" smooth="yes"/>
      <point x="143" y="1"/>
      <point x="77" y="50"/>
      <point x="77" y="137" type="curve" smooth="yes"/>
      <point x="77" y="223"/>
      <point x="139" y="272"/>
      <point x="244" y="272" type="curve" smooth="yes"/>
      <point x="371" y="272" type="line"/>
      <point x="371" y="328" type="line" smooth="yes"/>
      <point x="371" y="388"/>
      <point x="347" y="425"/>
      <point x="253" y="428" type="curve" smooth="yes"/>
      <point x="190" y="429"/>
      <point x="157" y="407"/>
      <point x="152" y="360" type="curve"/>
      <point x="97" y="360" type="line"/>
      <point x="104" y="436"/>
      <point x="169" y="477"/>
      <point x="268" y="477" type="curve" smooth="yes"/>
      <point x="332" y="477"/>
      <point x="384" y="437"/>
      <point x="409" y="394" type="curve"/>
      <point x="413" y="394" type="line"/>
      <point x="440" y="434"/>
      <point x="505" y="477"/>
      <point x="564" y="477" type="curve" smooth="yes"/>
      <point x="591" y="477"/>
      <point x="616" y="472"/>
      <point x="639" y="463" type="curve" smooth="yes"/>
      <point x="662" y="454"/>
      <point x="681" y="440"/>
      <point x="697" y="423" type="curve" smooth="yes"/>
      <point x="713" y="405"/>
      <point x="726" y="384"/>
      <point x="735" y="359" type="curve" smooth="yes"/>
      <point x="744" y="334"/>
      <point x="748" y="306"/>
      <point x="748" y="277" type="curve" smooth="yes"/>
      <point x="748" y="220" type="line"/>
      <point x="428" y="220" type="line"/>
      <point x="428" y="183" type="line" smooth="yes"/>
      <point x="428" y="113"/>
      <point x="477" y="53"/>
      <point x="579" y="54" type="curve" smooth="yes"/>
      <point x="631" y="54"/>
      <point x="674" y="75"/>
      <point x="682" y="118" type="curve"/>
      <point x="741" y="118" type="line"/>
      <point x="739" y="105"/>
      <point x="734" y="92"/>
      <point x="727" y="79" type="curve" smooth="yes"/>
      <point x="720" y="66"/>
      <point x="709" y="54"/>
      <point x="696" y="42" type="curve" smooth="yes"/>
      <point x="682" y="30"/>
      <point x="665" y="20"/>
      <point x="643" y="12" type="curve" smooth="yes"/>
      <point x="621" y="5"/>
      <point x="597" y="1"/>
    </contour>
    <contour>
      <point x="564" y="421" type="curve"/>
      <point x="530" y="421"/>
      <point x="499" y="408"/>
      <point x="471" y="381" type="curve" smooth="yes"/>
      <point x="442" y="354"/>
      <point x="428" y="323"/>
      <point x="428" y="286" type="curve" smooth="yes"/>
      <point x="428" y="269" type="line"/>
      <point x="688" y="269" type="line"/>
      <point x="688" y="280" type="line" smooth="yes"/>
      <point x="688" y="300"/>
      <point x="686" y="319"/>
      <point x="682" y="337" type="curve"/>
      <point x="677" y="355"/>
      <point x="670" y="370"/>
      <point x="661" y="381" type="curve"/>
      <point x="651" y="392"/>
      <point x="637" y="402"/>
      <point x="619" y="411" type="curve"/>
      <point x="600" y="419"/>
      <point x="582" y="422"/>
    </contour>
    <contour>
      <point x="236" y="46" type="curve" smooth="yes"/>
      <point x="269" y="46"/>
      <point x="300" y="59"/>
      <point x="329" y="84" type="curve" smooth="yes"/>
      <point x="357" y="109"/>
      <point x="371" y="136"/>
      <point x="371" y="167" type="curve" smooth="yes"/>
      <point x="371" y="220" type="line"/>
      <point x="231" y="220" type="line" smooth="yes"/>
      <point x="167" y="220"/>
      <point x="124" y="188"/>
      <point x="124" y="142" type="curve" smooth="yes"/>
      <point x="124" y="88"/>
      <point x="180" y="46"/>
    </contour>
    <contour>
      <point x="396" y="611" type="line"/>
      <point x="534" y="750" type="line"/>
      <point x="457" y="750" type="line"/>
      <point x="346" y="611" type="line"/>
    </contour>
  </outline>
</glyph>
<glyph name="uni0233" format="2">
  <advance width="597"/>
  <unicode hex="0233"/>
  <outline>
    <contour>
      <point x="590" y="426" type="line"/>
      <point x="509" y="426" type="line"/>
      <point x="224" y="-167" type="line"/>
      <point x="316" y="-167" type="line"/>
      <point x="316" y="-215" type="line"/>
      <point x="94" y="-215" type="line"/>
      <point x="94" y="-167" type="line"/>
      <point x="164" y="-167" type="line"/>
      <point x="263" y="40" type="line"/>
      <point x="80" y="426" type="line"/>
      <point x="7" y="426" type="line"/>
      <point x="7" y="475" type="line"/>
      <point x="219" y="475" type="line"/>
      <point x="219" y="426" type="line"/>
      <point x="140" y="426" type="line"/>
      <point x="292" y="102" type="line"/>
      <point x="449" y="426" type="line"/>
      <point x="374" y="426" type="line"/>
      <point x="374" y="475" type="line"/>
      <point x="590" y="475" type="line"/>
    </contour>
    <contour>
      <point x="162" y="604" type="line"/>
      <point x="437" y="604" type="line"/>
      <point x="437" y="650" type="line"/>
      <point x="162" y="650" type="line"/>
    </contour>
  </outline>
</glyph>
<glyph name="dotaccent" format="2">
  <advance width="278"/>
  <unicode hex="02D9"/>
  <outline>
    <contour>
      <point x="140" y="675" type="curve" smooth="yes"/>
      <point x="169" y="675"/>
      <point x="191" y="699"/>
      <point x="191" y="728" type="curve" smooth="yes"/>
      <point x="191" y="757"/>
      <point x="169" y="781"/>
      <point x="140" y="781" type="curve" smooth="yes"/>
      <point x="111" y="781"/>
      <point x="89" y="757"/>
      <point x="89" y="728" type="curve" smooth="yes"/>
      <point x="89" y="699"/>
      <point x="111" y="675"/>
    </contour>
  </outline>
</glyph>
<glyph name="emdash" format="2">
  <advance width="851"/>
  <unicode hex="2014"/>
  <outline>
    <contour>
      <point x="22" y="257" type="line"/>
      <point x="829" y="257" type="line"/>
      <point x="829" y="207" type="line"/>
      <point x="22" y="207" type="line"/>
    </contour>
  </outline>
</glyph>
<glyph name="quotedblleft" format="2">
  <advance width="306"/>
  <unicode hex="201C"/>
  <outline>
    <contour>
      <point x="293" y="538" type="line"/>
      <point x="237" y="538" type="line"/>
      <point x="171" y="750" type="line"/>
      <point x="227" y="750" type="line"/>
    </contour>
    <contour>
      <point x="153" y="538" type="line"/>
      <point x="97" y="538" type="line"/>
      <point x="31" y="750" type="line"/>
      <point x="87" y="750" type="line"/>
    </contour>
  </outline>
</glyph>
<glyph name="quotedblright" format="2">
  <advance width="306"/>
  <unicode hex="201D"/>
  <outline>
    <contour>
      <point x="13" y="538" type="line"/>
      <point x="79" y="750" type="line"/>
      <point x="135" y="750" type="line"/>
      <point x="69" y="538" type="line"/>
    </contour>
    <contour>
      <point x="153" y="538" type="line"/>
      <point x="219" y="750" type="line"/>
      <point x="275" y="750" type="line"/>
      <point x="209" y="538" type="line"/>
    </contour>
  </outline>
</glyph>
<glyph name="ellipsis" format="2">
  <advance width="608"/>
  <unicode hex="2026"/>
  <outline>
    <contour>
      <point x="464" y="49" type="line" smooth="yes"/>
      <point x="464" y="77"/>
      <point x="489" y="102"/>
      <point x="518" y="102" type="curve" smooth="yes"/>
      <point x="547" y="102"/>
      <point x="572" y="77"/>
      <point x="572" y="48" type="curve" smooth="yes"/>
      <point x="572" y="19"/>
      <point x="547" y="-5"/>
      <point x="518" y="-5" type="curve" smooth="yes"/>
      <point x="489" y="-5"/>
      <point x="464" y="19"/>
      <point x="464" y="48" type="curve" smooth="yes"/>
    </contour>
    <contour>
      <point x="50" y="49" type="line" smooth="yes"/>
      <point x="50" y="77"/>
      <point x="75" y="102"/>
      <point x="104" y="102" type="curve" smooth="yes"/>
      <point x="133" y="102"/>
      <point x="158" y="77"/>
      <point x="158" y="48" type="curve" smooth="yes"/>
      <point x="158" y="19"/>
      <point x="133" y="-5"/>
      <point x="104" y="-5" type="curve" smooth="yes"/>
      <point x="75" y="-5"/>
      <point x="50" y="19"/>
      <point x="50" y="48" type="curve" smooth="yes"/>
    </contour>
    <contour>
      <point x="50" y="49" type="line" smooth="yes"/>
      <point x="50" y="77"/>
      <point x="75" y="102"/>
      <point x="104" y="102" type="curve" smooth="yes"/>
      <point x="133" y="102"/>
      <point x="158" y="77"/>
      <point x="158" y="48" type="curve" smooth="yes"/>
      <point x="158" y="19"/>
      <point x="133" y="-5"/>
      <point x="104" y="-5" type="curve" smooth="yes"/>
      <point x="75" y="-5"/>
      <point x="50" y="19"/>
      <point x="50" y="48" type="curve" smooth="yes"/>
    </contour>
    <contour>
      <point x="257" y="49" type="line" smooth="yes"/>
      <point x="257" y="77"/>
      <point x="282" y="102"/>
      <point x="311" y="102" type="curve" smooth="yes"/>
      <point x="340" y="102"/>
      <point x="365" y="77"/>
      <point x="365" y="48" type="curve" smooth="yes"/>
      <point x="365" y="19"/>
      <point x="340" y="-5"/>
      <point x="311" y="-5" type="curve" smooth="yes"/>
      <point x="282" y="-5"/>
      <point x="257" y="19"/>
      <point x="257" y="48" type="curve" smooth="yes"/>
    </contour>
  </outline>
</glyph>
<glyph name="euro" format="2">
  <advance width="713"/>
  <unicode hex="20AC"/>
  <outline>
    <contour>
      <point x="585" y="539" type="line"/>
      <point x="633" y="561" type="line"/>
    </contour>
    <contour>
      <point x="33" y="376" type="line"/>
      <point x="123" y="376" type="line"/>
      <point x="121" y="359"/>
      <point x="120" y="342"/>
      <point x="120" y="325" type="curve" smooth="yes"/>
      <point x="120" y="306"/>
      <point x="121" y="288"/>
      <point x="123" y="270" type="curve"/>
      <point x="33" y="270" type="line"/>
      <point x="33" y="222" type="line"/>
      <point x="131" y="222" type="line"/>
      <point x="163" y="88"/>
      <point x="259" y="-12"/>
      <point x="413" y="-12" type="curve" smooth="yes"/>
      <point x="509" y="-12"/>
      <point x="591" y="26"/>
      <point x="641" y="83" type="curve"/>
      <point x="605" y="121" type="line"/>
      <point x="550" y="68"/>
      <point x="494" y="40"/>
      <point x="414" y="40" type="curve" smooth="yes"/>
      <point x="292" y="40"/>
      <point x="219" y="116"/>
      <point x="191" y="222" type="curve"/>
      <point x="453" y="222" type="line"/>
      <point x="453" y="270" type="line"/>
      <point x="181" y="270" type="line"/>
      <point x="179" y="288"/>
      <point x="178" y="307"/>
      <point x="178" y="326" type="curve" smooth="yes"/>
      <point x="178" y="343"/>
      <point x="179" y="360"/>
      <point x="180" y="376" type="curve"/>
      <point x="453" y="376" type="line"/>
      <point x="453" y="424" type="line"/>
      <point x="189" y="424" type="line"/>
      <point x="218" y="549"/>
      <point x="307" y="618"/>
      <point x="425" y="618" type="curve" smooth="yes"/>
      <point x="502" y="618"/>
      <point x="573" y="570"/>
      <point x="585" y="539" type="curve"/>
      <point x="633" y="561" type="line"/>
      <point x="602" y="621"/>
      <point x="521" y="669"/>
      <point x="427" y="669" type="curve" smooth="yes"/>
      <point x="284" y="669"/>
      <point x="165" y="581"/>
      <point x="130" y="424" type="curve"/>
      <point x="33" y="424" type="line"/>
    </contour>
  </outline>
</glyph>
<glyph name="trademark" format="2">
  <advance width="586"/>
  <unicode hex="2122"/>
  <outline>
    <contour>
      <point x="275" y="413" type="line"/>
      <point x="371" y="413" type="line"/>
      <point x="371" y="446" type="line"/>
      <point x="339" y="446" type="line"/>
      <point x="339" y="609" type="line"/>
      <point x="416" y="443" type="line"/>
      <point x="433" y="443" type="line"/>
      <point x="509" y="609" type="line"/>
      <point x="509" y="446" type="line"/>
      <point x="477" y="446" type="line"/>
      <point x="477" y="413" type="line"/>
      <point x="575" y="413" type="line"/>
      <point x="575" y="446" type="line"/>
      <point x="540" y="446" type="line"/>
      <point x="540" y="625" type="line"/>
      <point x="578" y="625" type="line"/>
      <point x="578" y="658" type="line"/>
      <point x="498" y="658" type="line"/>
      <point x="425" y="499" type="line"/>
      <point x="353" y="658" type="line"/>
      <point x="273" y="658" type="line"/>
      <point x="273" y="625" type="line"/>
      <point x="310" y="625" type="line"/>
      <point x="310" y="446" type="line"/>
      <point x="275" y="446" type="line"/>
    </contour>
    <contour>
      <point x="69" y="413" type="line"/>
      <point x="179" y="413" type="line"/>
      <point x="179" y="446" type="line"/>
      <point x="142" y="446" type="line"/>
      <point x="142" y="627" type="line"/>
      <point x="206" y="627" type="line"/>
      <point x="206" y="590" type="line"/>
      <point x="241" y="590" type="line"/>
      <point x="241" y="658" type="line"/>
      <point x="8" y="658" type="line"/>
      <point x="8" y="590" type="line"/>
      <point x="42" y="590" type="line"/>
      <point x="42" y="627" type="line"/>
      <point x="107" y="627" type="line"/>
      <point x="107" y="446" type="line"/>
      <point x="69" y="446" type="line"/>
    </contour>
  </outline>
</glyph>
<glyph name="fi" format="2">
  <advance width="358"/>
  <unicode hex="FB01"/>
  <outline>
    <contour>
      <point x="157" y="642" type="curve" smooth="yes"/>
      <point x="185" y="642"/>
      <point x="209" y="667"/>
      <point x="209" y="697" type="curve" smooth="yes"/>
      <point x="209" y="726"/>
      <point x="185" y="751"/>
      <point x="157" y="751" type="curve" smooth="yes"/>
      <point x="127" y="751"/>
      <point x="104" y="726"/>
      <point x="104" y="697" type="curve" smooth="yes"/>
      <point x="104" y="667"/>
      <point x="127" y="642"/>
    </contour>
    <contour>
      <point x="189" y="0" type="line"/>
      <point x="415" y="0" type="line"/>
      <point x="415" y="51" type="line"/>
      <point x="332" y="51" type="line"/>
      <point x="332" y="475" type="line"/>
      <point x="129" y="475" type="line"/>
      <point x="129" y="425" type="line"/>
      <point x="272" y="425" type="line"/>
      <point x="272" y="51" type="line"/>
      <point x="189" y="51" type="line"/>
    </contour>
    <contour>
      <point x="132" y="0" type="line"/>
      <point x="-98" y="0" type="line"/>
      <point x="-98" y="50" type="line"/>
      <point x="-16" y="50" type="line"/>
      <point x="-16" y="425" type="line"/>
      <point x="-96" y="425" type="line"/>
      <point x="-96" y="475" type="line"/>
      <point x="-16" y="475" type="line"/>
      <point x="-16" y="635" type="line" smooth="yes"/>
      <point x="-16" y="709"/>
      <point x="29" y="736"/>
      <point x="72" y="745" type="curve" smooth="yes"/>
      <point x="89" y="749"/>
      <point x="107" y="750"/>
      <point x="120" y="750" type="curve" smooth="yes"/>
      <point x="159" y="751" type="line"/>
      <point x="159" y="700" type="line"/>
      <point x="140" y="700" type="line"/>
      <point x="107" y="699"/>
      <point x="82" y="696"/>
      <point x="66" y="690" type="curve" smooth="yes"/>
      <point x="50" y="684"/>
      <point x="42" y="663"/>
      <point x="42" y="628" type="curve" smooth="yes"/>
      <point x="42" y="475" type="line"/>
      <point x="132" y="475" type="line"/>
      <point x="132" y="425" type="line"/>
      <point x="42" y="425" type="line"/>
      <point x="42" y="50" type="line"/>
      <point x="132" y="50" type="line"/>
    </contour>
    <contour>
      <point x="132" y="0" type="line"/>
      <point x="-98" y="0" type="line"/>
      <point x="-98" y="50" type="line"/>
      <point x="-16" y="50" type="line"/>
      <point x="-16" y="425" type="line"/>
      <point x="-96" y="425" type="line"/>
      <point x="-96" y="475" type="line"/>
      <point x="-16" y="475" type="line"/>
      <point x="-16" y="635" type="line" smooth="yes"/>
      <point x="-16" y="709"/>
      <point x="29" y="736"/>
      <point x="72" y="745" type="curve" smooth="yes"/>
      <point x="89" y="749"/>
      <point x="107" y="750"/>
      <point x="120" y="750" type="curve" smooth="yes"/>
      <point x="159" y="751" type="line"/>
      <point x="159" y="700" type="line"/>
      <point x="140" y="700" type="line"/>
      <point x="107" y="699"/>
      <point x="82" y="696"/>
      <point x="66" y="690" type="curve" smooth="yes"/>
      <point x="50" y="684"/>
      <point x="42" y="663"/>
      <point x="42" y="628" type="curve" smooth="yes"/>
      <point x="42" y="475" type="line"/>
      <point x="132" y="475" type="line"/>
      <point x="132" y="425" type="line"/>
      <point x="42" y="425" type="line"/>
      <point x="42" y="50" type="line"/>
      <point x="132" y="50" type="line"/>
    </contour>
  </outline>
</glyph>
<glyph name="Q.alt" format="2">
  <advance width="796"/>
  <outline>
    <contour>
      <point x="34" y="376" type="line" smooth="yes"/>
      <point x="34" y="479"/>
      <point x="71" y="567"/>
      <point x="145" y="641" type="curve" smooth="yes"/>
      <point x="219" y="715"/>
      <point x="309" y="752"/>
      <point x="414" y="752" type="curve" smooth="yes"/>
      <point x="519" y="752"/>
      <point x="609" y="715"/>
      <point x="684" y="641" type="curve" smooth="yes"/>
      <point x="758" y="567"/>
      <point x="795" y="478"/>
      <point x="795" y="375" type="curve" smooth="yes"/>
      <point x="795" y="272"/>
      <point x="758" y="184"/>
      <point x="684" y="110" type="curve" smooth="yes"/>
      <point x="609" y="36"/>
      <point x="519" y="-1"/>
      <point x="414" y="-1" type="curve" smooth="yes"/>
      <point x="309" y="-1"/>
      <point x="219" y="36"/>
      <point x="145" y="110" type="curve" smooth="yes"/>
      <point x="71" y="184"/>
      <point x="34" y="272"/>
      <point x="34" y="375" type="curve" smooth="yes"/>
    </contour>
    <contour>
      <point x="93" y="376" type="line"/>
      <point x="93" y="285"/>
      <point x="124" y="208"/>
      <point x="186" y="145" type="curve" smooth="yes"/>
      <point x="248" y="82"/>
      <point x="324" y="51"/>
      <point x="414" y="51" type="curve" smooth="yes"/>
      <point x="504" y="51"/>
      <point x="580" y="82"/>
      <point x="643" y="145" type="curve" smooth="yes"/>
      <point x="705" y="208"/>
      <point x="736" y="284"/>
      <point x="736" y="375" type="curve" smooth="yes"/>
      <point x="736" y="466"/>
      <point x="705" y="543"/>
      <point x="643" y="606" type="curve" smooth="yes"/>
      <point x="580" y="669"/>
      <point x="504" y="700"/>
      <point x="414" y="700" type="curve" smooth="yes"/>
      <point x="324" y="700"/>
      <point x="248" y="669"/>
      <point x="186" y="606" type="curve" smooth="yes"/>
      <point x="124" y="543"/>
      <point x="93" y="466"/>
      <point x="93" y="375" type="curve"/>
    </contour>
    <contour>
      <point x="777" y="-70" type="line"/>
      <point x="446" y="260" type="line"/>
      <point x="482" y="295" type="line"/>
      <point x="812" y="-35" type="line"/>
    </contour>
  </outline>
</glyph>
<glyph name="i.loclTRK" format="2">
  <advance width="297"/>
  <outline>
    <contour>
      <point x="48" y="477" type="line"/>
      <point x="48" y="425" type="line"/>
      <point x="125" y="425" type="line"/>
      <point x="125" y="50" type="line"/>
      <point x="48" y="50" type="line"/>
      <point x="48" y="0" type="line"/>
      <point x="262" y="0" type="line"/>
      <point x="262" y="50" type="line"/>
      <point x="185" y="50" type="line"/>
      <point x="185" y="477" type="line"/>
      <point x="160" y="477"/>
      <point x="123" y="477"/>
      <point x="123" y="477" type="curve"/>
    </contour>
    <contour>
      <point x="182" y="425" type="line"/>
      <point x="184" y="477" type="line"/>
    </contour>
    <contour>
      <point x="157" y="561" type="curve" smooth="yes"/>
      <point x="186" y="561"/>
      <point x="208" y="585"/>
      <point x="208" y="614" type="curve" smooth="yes"/>
      <point x="208" y="643"/>
      <point x="186" y="667"/>
      <point x="157" y="667" type="curve" smooth="yes"/>
      <point x="128" y="667"/>
      <point x="106" y="643"/>
      <point x="106" y="614" type="curve" smooth="yes"/>
      <point x="106" y="585"/>
      <point x="128" y="561"/>
    </contour>
  </outline>
</glyph>
<glyph name="number" format="2">
  <advance width="569"/>
  <outline>
    <contour>
      <point x="41" y="451" type="line"/>
      <point x="178" y="451" type="line"/>
      <point x="146" y="242" type="line"/>
      <point x="-3" y="242" type="line"/>
      <point x="-3" y="197" type="line"/>
      <point x="139" y="197" type="line"/>
      <point x="109" y="0" type="line"/>
      <point x="159" y="0" type="line"/>
      <point x="189" y="197" type="line"/>
      <point x="326" y="197" type="line"/>
      <point x="297" y="0" type="line"/>
      <point x="347" y="0" type="line"/>
      <point x="377" y="197" type="line"/>
      <point x="524" y="197" type="line"/>
      <point x="524" y="242" type="line"/>
      <point x="384" y="242" type="line"/>
      <point x="416" y="451" type="line"/>
      <point x="567" y="451" type="line"/>
      <point x="567" y="496" type="line"/>
      <point x="422" y="496" type="line"/>
      <point x="454" y="700" type="line"/>
      <point x="404" y="700" type="line"/>
      <point x="372" y="496" type="line"/>
      <point x="235" y="496" type="line"/>
      <point x="267" y="700" type="line"/>
      <point x="217" y="700" type="line"/>
      <point x="185" y="496" type="line"/>
      <point x="41" y="496" type="line"/>
    </contour>
    <contour>
      <point x="228" y="451" type="line"/>
      <point x="366" y="451" type="line"/>
      <point x="334" y="242" type="line"/>
      <point x="196" y="242" type="line"/>
    </contour>
  </outline>
</glyph>
<glyph name="quoteright.alt" format="2">
  <advance width="191"/>
  <outline>
    <contour>
      <point x="25" y="419" type="line"/>
      <point x="123" y="468"/>
      <point x="160" y="553"/>
      <point x="160" y="607" type="curve" smooth="yes"/>
      <point x="160" y="654"/>
      <point x="133" y="679"/>
      <point x="101" y="679" type="curve" smooth="yes"/>
      <point x="74" y="679"/>
      <point x="48" y="656"/>
      <point x="48" y="626" type="curve" smooth="yes"/>
      <point x="48" y="600"/>
      <point x="73" y="576"/>
      <point x="98" y="573" type="curve"/>
      <point x="97" y="545"/>
      <point x="79" y="487"/>
      <point x="12" y="440" type="curve"/>
    </contour>
  </outline>
</glyph>
<glyph name="registered.large" format="2">
  <advance width="698"/>
  <outline>
    <contour>
      <point x="281" y="520" type="line"/>
      <point x="211" y="520" type="line"/>
      <point x="211" y="495" type="line"/>
      <point x="249" y="495" type="line"/>
      <point x="249" y="171" type="line"/>
      <point x="211" y="171" type="line"/>
      <point x="211" y="146" type="line"/>
      <point x="318" y="146" type="line"/>
      <point x="318" y="171" type="line"/>
      <point x="279" y="171" type="line"/>
      <point x="279" y="330" type="line"/>
      <point x="330" y="329" type="line" smooth="yes"/>
      <point x="396" y="329"/>
      <point x="445" y="318"/>
      <point x="445" y="248" type="curve" smooth="yes"/>
      <point x="445" y="146" type="line"/>
      <point x="513" y="146" type="line"/>
      <point x="513" y="171" type="line"/>
      <point x="474" y="171" type="line"/>
      <point x="474" y="246" type="line" smooth="yes"/>
      <point x="474" y="292"/>
      <point x="459" y="325"/>
      <point x="408" y="339" type="curve"/>
      <point x="408" y="340" type="line"/>
      <point x="451" y="351"/>
      <point x="476" y="378"/>
      <point x="476" y="427" type="curve" smooth="yes"/>
      <point x="476" y="495"/>
      <point x="420" y="520"/>
      <point x="342" y="520" type="curve" smooth="yes"/>
    </contour>
    <contour>
      <point x="344" y="357" type="curve" smooth="yes"/>
      <point x="322" y="357"/>
      <point x="294" y="357"/>
      <point x="279" y="358" type="curve"/>
      <point x="279" y="496" type="line"/>
      <point x="343" y="496" type="line" smooth="yes"/>
      <point x="407" y="496"/>
      <point x="449" y="479"/>
      <point x="449" y="427" type="curve" smooth="yes"/>
      <point x="449" y="369"/>
      <point x="413" y="357"/>
    </contour>
    <contour>
      <point x="349" y="-12" type="curve" smooth="yes"/>
      <point x="537" y="-12"/>
      <point x="683" y="141"/>
      <point x="683" y="329" type="curve" smooth="yes"/>
      <point x="683" y="517"/>
      <point x="537" y="670"/>
      <point x="349" y="670" type="curve" smooth="yes"/>
      <point x="161" y="670"/>
      <point x="15" y="517"/>
      <point x="15" y="329" type="curve" smooth="yes"/>
      <point x="15" y="141"/>
      <point x="161" y="-12"/>
    </contour>
    <contour>
      <point x="349" y="21" type="curve" smooth="yes"/>
      <point x="184" y="21"/>
      <point x="53" y="160"/>
      <point x="53" y="329" type="curve" smooth="yes"/>
      <point x="53" y="498"/>
      <point x="184" y="637"/>
      <point x="349" y="637" type="curve" smooth="yes"/>
      <point x="514" y="637"/>
      <point x="645" y="498"/>
      <point x="645" y="329" type="curve" smooth="yes"/>
      <point x="645" y="160"/>
      <point x="514" y="21"/>
    </contour>
  </outline>
</glyph>
